<?xml version="1.0" standalone="no"?>
<!DOCTYPE svg PUBLIC "-//W3C//DTD SVG 20010904//EN"
 "http://www.w3.org/TR/2001/REC-SVG-20010904/DTD/svg10.dtd">
<svg version="1.0" xmlns="http://www.w3.org/2000/svg"
 width="650.000000pt" height="850.000000pt" viewBox="0 0 650.000000 850.000000"
 preserveAspectRatio="xMidYMid meet">

<g transform="translate(0.000000,850.000000) scale(0.100000,-0.100000)"
fill="#000000" stroke="none">
<path d="M3245 8030 c-3 -6 -18 -7 -32 -4 -16 4 -28 2 -33 -6 -5 -8 -39 -14
-96 -16 -103 -5 -250 -14 -279 -18 -62 -9 -106 -20 -111 -27 -2 -4 -11 -6 -20
-2 -9 3 -14 0 -12 -7 2 -6 -6 -17 -17 -23 -10 -7 -25 -18 -33 -24 -7 -7 -16
-13 -20 -14 -31 -3 -46 -10 -61 -28 -10 -12 -23 -21 -29 -21 -6 0 -33 -11 -60
-25 -28 -14 -57 -25 -65 -25 -9 0 -22 -9 -29 -19 -8 -11 -35 -25 -60 -31 -39
-10 -47 -16 -52 -41 -4 -21 -13 -30 -33 -34 -15 -3 -41 -12 -56 -20 -16 -8
-37 -15 -47 -15 -10 0 -20 -7 -24 -15 -3 -8 -13 -15 -23 -15 -15 0 -15 -2 3
-15 19 -14 19 -15 -3 -21 -12 -3 -19 -12 -17 -19 3 -7 -8 -24 -25 -36 -20 -15
-28 -26 -22 -32 6 -6 1 -17 -15 -29 -13 -11 -24 -24 -24 -29 0 -8 -66 -95 -90
-119 -17 -16 -60 -80 -60 -88 0 -5 -7 -15 -15 -22 -11 -9 -12 -15 -5 -20 7 -4
-2 -33 -25 -84 -21 -47 -35 -93 -35 -117 0 -22 -7 -70 -15 -107 -9 -39 -16
-139 -19 -242 -3 -167 -2 -177 19 -220 13 -25 42 -90 65 -145 23 -55 45 -104
49 -110 4 -5 15 -39 25 -75 10 -36 21 -72 26 -81 4 -8 13 -42 20 -75 6 -32 18
-81 27 -107 13 -43 14 -74 3 -250 -6 -111 -13 -204 -15 -208 -2 -3 0 -35 4
-70 l8 -64 2 86 c0 47 12 175 26 285 13 109 29 263 34 340 9 127 22 190 51
245 5 9 7 54 5 100 -3 75 -1 88 26 140 16 32 33 60 39 64 5 3 10 19 10 34 0
16 7 34 15 41 8 7 15 18 15 26 0 15 22 42 96 117 27 29 53 60 57 70 3 9 13 17
22 17 9 0 29 10 44 21 17 13 34 18 42 14 7 -5 10 -4 6 2 -9 14 38 37 58 29 10
-3 35 -1 57 6 39 11 39 12 16 24 -20 12 -12 13 53 7 60 -4 84 -2 109 11 30 15
60 14 100 -2 26 -10 50 -10 50 0 0 6 6 8 14 5 8 -3 17 1 20 9 3 8 17 14 31 14
14 0 37 7 50 16 16 10 34 14 51 10 17 -5 23 -3 19 4 -4 7 2 7 20 0 34 -13 35
-13 29 5 -7 17 4 19 25 6 7 -5 11 -13 8 -18 -12 -19 98 -6 141 16 39 20 69 21
58 2 -7 -11 28 -10 35 1 4 6 17 8 30 6 l24 -4 -27 -12 c-16 -6 -28 -13 -28
-14 0 -2 32 -3 72 -3 45 0 73 -4 75 -11 5 -14 44 -6 55 10 5 8 8 7 8 -1 0 -9
12 -11 40 -7 26 4 40 2 40 -5 0 -6 16 -11 36 -11 24 0 33 -4 28 -12 -8 -12
145 -6 180 8 16 6 18 4 13 -9 -5 -13 1 -18 21 -23 15 -3 35 -8 45 -11 27 -7
122 -104 142 -144 10 -19 27 -47 40 -64 24 -33 116 -270 136 -350 6 -27 27
-76 45 -107 42 -73 100 -227 120 -320 9 -40 20 -89 24 -108 28 -115 50 -218
50 -237 0 -12 5 -25 10 -28 6 -3 7 -17 4 -31 -8 -31 9 -31 26 1 11 21 10 28
-5 52 -11 16 -18 42 -17 60 2 18 -4 46 -13 62 -19 37 -11 82 22 117 15 16 18
24 9 21 -21 -8 -20 1 3 54 10 24 22 77 26 117 3 40 15 96 25 125 25 72 69 174
70 162 1 -15 31 54 41 95 51 202 63 368 33 469 -9 29 -10 49 -4 56 7 8 5 22
-4 41 -8 16 -17 49 -20 74 -3 24 -10 46 -15 48 -15 5 -14 32 0 32 7 0 9 10 7
25 -3 13 0 26 6 28 7 2 10 29 8 71 -4 74 -15 116 -32 116 -6 0 -8 4 -5 10 6
10 -24 70 -36 70 -12 0 -31 58 -24 70 5 9 1 10 -14 5 -12 -4 -21 -2 -21 4 0 6
-8 20 -17 31 -13 15 -19 17 -26 7 -5 -7 -6 -4 -2 9 4 16 0 23 -15 27 -11 3
-20 1 -20 -4 0 -5 -7 -9 -16 -9 -12 0 -14 3 -6 13 7 9 4 17 -13 30 -15 10 -26
13 -30 7 -9 -15 -25 -12 -25 4 0 11 -11 14 -47 10 -33 -3 -43 -2 -33 5 8 5 18
7 22 5 4 -3 8 -1 8 4 0 21 -119 47 -136 29 -15 -14 -26 -6 -21 15 3 11 -1 34
-8 49 -17 31 -38 50 -28 24 11 -30 -27 -13 -45 20 -9 17 -20 31 -24 33 -4 2
-3 14 2 28 12 30 -3 32 -18 2 -7 -16 -11 -18 -11 -7 -1 18 -52 69 -69 69 -7 0
-12 4 -12 8 0 4 -10 8 -21 9 -12 1 -29 8 -38 16 -13 12 -103 47 -120 47 -3 0
4 -7 15 -15 10 -8 15 -14 9 -15 -27 0 -169 41 -184 53 -14 12 -74 37 -89 37
-2 0 1 -7 8 -15 7 -8 21 -15 31 -15 18 0 35 -17 26 -26 -3 -3 -38 7 -79 21
-115 42 -200 62 -239 57 -21 -2 -40 1 -43 7 -9 14 -33 14 -41 1z m438 -107
c-7 -2 -21 -2 -30 0 -10 3 -4 5 12 5 17 0 24 -2 18 -5z m-130 -250 c-7 -2 -19
-2 -25 0 -7 3 -2 5 12 5 14 0 19 -2 13 -5z m37 -13 c0 -5 -2 -10 -4 -10 -3 0
-8 5 -11 10 -3 6 -1 10 4 10 6 0 11 -4 11 -10z m-432 -677 c2 -8 -5 -13 -17
-13 -21 0 -35 13 -24 24 10 10 36 3 41 -11z m1175 -333 c3 -11 1 -18 -4 -14
-5 3 -9 12 -9 20 0 20 7 17 13 -6z"/>
<path d="M3448 8023 c7 -3 16 -2 19 1 4 3 -2 6 -13 5 -11 0 -14 -3 -6 -6z"/>
<path d="M4085 7850 c10 -11 20 -20 23 -20 3 0 -3 9 -13 20 -10 11 -20 20 -23
20 -3 0 3 -9 13 -20z"/>
<path d="M3805 5900 c-4 -6 -14 -10 -23 -8 -10 1 -30 -3 -47 -9 -30 -12 -88
-24 -136 -28 -42 -4 -119 -46 -119 -65 0 -9 -9 -25 -20 -35 -33 -30 -26 -55
15 -56 54 -2 56 -3 69 -21 8 -11 20 -15 34 -11 28 7 28 -4 0 -35 l-23 -24 25
7 c14 4 43 21 65 37 l40 29 13 -40 c34 -101 151 -123 202 -39 11 18 19 47 19
63 -1 17 -3 22 -6 13 -2 -10 -9 -18 -14 -18 -12 0 -11 12 5 32 12 16 16 15 60
-13 27 -16 50 -39 53 -49 3 -11 12 -20 19 -20 8 0 14 -4 14 -10 0 -12 30 -13
49 -1 19 12 -16 57 -68 87 -60 34 -168 66 -207 62 -45 -5 -44 9 2 18 73 14
205 -29 253 -82 17 -19 37 -34 43 -34 6 0 4 8 -5 18 -23 25 -21 35 2 22 24
-12 31 -13 31 -1 0 12 -92 56 -164 78 -33 10 -56 23 -56 31 0 10 -7 13 -22 9
l-23 -6 23 19 23 19 -22 31 c-24 32 -35 37 -41 18 -3 -7 -12 -6 -30 6 -18 12
-28 14 -33 6z m52 -224 c-4 -9 -11 -16 -17 -16 -11 0 -14 33 -3 43 11 11 26
-10 20 -27z m-97 -1 c0 -8 -4 -15 -10 -15 -5 0 -10 7 -10 15 0 8 5 15 10 15 6
0 10 -7 10 -15z m0 -83 c0 -13 -3 -12 -15 4 -19 25 -19 40 0 24 8 -7 15 -20
15 -28z m120 24 c0 -19 -39 -46 -65 -45 -16 0 -13 4 13 16 17 9 32 23 32 30 0
7 5 13 10 13 6 0 10 -6 10 -14z"/>
<path d="M2545 5850 c-11 -5 -30 -6 -43 -3 -15 4 -31 -2 -46 -17 -18 -16 -37
-22 -80 -23 -42 -1 -55 -5 -52 -14 3 -7 -2 -13 -12 -14 -13 0 -11 -3 6 -9 12
-5 22 -14 22 -20 0 -8 6 -8 20 0 11 6 20 7 20 2 0 -5 -18 -17 -40 -27 -45 -20
-94 -61 -103 -87 -5 -15 -3 -16 21 -6 15 7 41 24 57 39 30 28 118 59 164 59
32 0 20 -10 -49 -41 -72 -32 -156 -101 -145 -119 12 -19 37 -9 81 33 25 23 56
47 69 54 21 12 23 10 28 -29 8 -63 44 -93 111 -93 46 0 56 4 79 30 15 17 27
37 27 45 0 8 4 21 9 29 8 12 13 12 36 -3 14 -10 35 -25 45 -34 26 -22 47 -23
55 -4 6 15 8 15 18 2 17 -22 40 -19 52 7 5 13 22 24 41 28 22 4 39 16 53 38
11 18 16 34 11 35 -6 2 -10 13 -10 24 0 14 -5 18 -15 14 -8 -3 -15 -2 -15 2 0
12 -53 32 -89 33 -20 1 -28 3 -18 6 9 2 17 9 17 15 0 6 -9 8 -20 5 -11 -3 -18
-1 -15 3 11 18 -25 25 -138 25 -75 0 -120 4 -125 11 -4 7 -15 8 -27 4z m-5
-184 c0 -8 -7 -16 -15 -20 -10 -4 -15 1 -15 14 0 11 7 20 15 20 8 0 15 -6 15
-14z m90 -11 c0 -8 -4 -15 -9 -15 -13 0 -22 16 -14 24 11 11 23 6 23 -9z m-75
-81 c14 5 16 1 14 -21 -1 -12 -30 -4 -45 12 -19 18 -18 31 1 15 8 -7 22 -10
30 -6z"/>
<path d="M4025 5830 c-3 -5 -2 -10 4 -10 5 0 13 5 16 10 3 6 2 10 -4 10 -5 0
-13 -4 -16 -10z"/>
<path d="M3959 5819 c-20 -12 15 -23 37 -11 15 8 14 10 -4 14 -11 3 -26 2 -33
-3z"/>
<path d="M2260 5800 c0 -5 5 -10 10 -10 6 0 10 5 10 10 0 6 -4 10 -10 10 -5 0
-10 -4 -10 -10z"/>
<path d="M4715 5740 c-25 -26 -27 -32 -15 -40 8 -5 18 -10 21 -10 10 0 39 48
39 65 0 23 -13 18 -45 -15z"/>
<path d="M1717 5693 c-3 -5 1 -37 8 -73 7 -36 13 -58 14 -49 2 26 25 69 39 69
20 0 14 17 -14 39 -28 22 -40 26 -47 14z"/>
<path d="M2885 5560 c3 -5 8 -10 11 -10 2 0 4 5 4 10 0 6 -5 10 -11 10 -5 0
-7 -4 -4 -10z"/>
<path d="M2846 5545 c-3 -8 -1 -15 4 -15 6 0 10 7 10 15 0 8 -2 15 -4 15 -2 0
-6 -7 -10 -15z"/>
<path d="M3431 4830 c-46 -16 -88 -33 -95 -38 -20 -17 -64 -22 -92 -12 -19 7
-36 7 -59 -1 -29 -11 -44 -9 -117 15 -91 31 -188 45 -188 29 0 -23 46 -41 89
-36 25 3 59 -1 84 -10 64 -23 153 -47 177 -47 11 0 38 9 58 19 115 60 143 71
175 71 22 0 39 -6 45 -15 7 -13 12 -12 31 9 24 26 21 46 -7 46 -9 0 -55 -14
-101 -30z m-206 -60 c3 -5 -1 -10 -9 -10 -9 0 -16 5 -16 10 0 6 4 10 9 10 6 0
13 -4 16 -10z"/>
<path d="M3432 4463 c-24 -3 -36 -12 -48 -35 -12 -22 -19 -27 -27 -19 -14 14
-38 14 -34 -1 1 -6 -15 -18 -37 -26 -30 -12 -42 -13 -57 -4 -10 6 -26 9 -36 6
-15 -5 -16 -4 -3 5 8 6 11 11 6 11 -5 0 -3 7 4 15 11 13 8 15 -13 15 -14 0
-32 3 -41 6 -9 3 -16 1 -16 -5 0 -6 6 -11 14 -11 8 0 18 -4 21 -10 3 -6 -5
-10 -18 -10 -16 0 -26 7 -30 20 -4 17 -14 20 -60 20 -31 0 -58 -4 -61 -9 -3
-4 -42 -11 -88 -15 -45 -4 -88 -12 -95 -18 -30 -25 -11 -31 85 -25 60 3 132 0
191 -9 147 -22 197 -19 315 21 98 33 111 35 201 30 59 -3 95 -1 95 5 0 6 -3
10 -7 10 -13 0 -197 28 -213 33 -8 2 -30 2 -48 0z"/>
<path d="M3208 4163 c7 -3 16 -2 19 1 4 3 -2 6 -13 5 -11 0 -14 -3 -6 -6z"/>
<path d="M4246 3908 c-13 -64 -7 -86 27 -109 99 -68 140 -128 168 -247 40
-164 9 -358 -90 -562 -17 -35 -31 -71 -31 -80 0 -21 -42 -84 -84 -126 -149
-150 -457 -322 -651 -364 -22 -4 -83 -18 -135 -29 -52 -12 -109 -23 -127 -25
-18 -3 -37 -7 -42 -10 -5 -3 -60 -9 -123 -12 -179 -10 -326 21 -523 109 -38
17 -72 34 -75 37 -3 4 -32 23 -65 43 -97 60 -237 190 -261 242 -7 17 -24 43
-38 59 -21 23 -24 32 -14 43 7 9 8 17 2 21 -21 15 -83 121 -123 210 -64 144
-91 236 -98 337 -5 87 -5 91 21 118 30 33 32 39 9 30 -14 -6 -13 -1 5 24 31
44 89 94 160 137 61 37 62 38 62 82 0 24 -4 44 -9 44 -14 0 -234 -90 -258
-106 -12 -7 -27 -14 -34 -14 -6 0 -24 -11 -41 -25 -16 -14 -36 -25 -44 -25 -8
0 -14 -6 -14 -13 0 -7 -14 -27 -30 -45 -17 -18 -30 -39 -30 -47 0 -8 -4 -16
-9 -19 -19 -12 -38 -261 -20 -271 5 -4 9 -22 9 -41 0 -19 5 -34 10 -34 6 0 10
-7 10 -15 0 -8 4 -23 9 -33 23 -43 41 -92 41 -111 0 -12 5 -21 11 -21 6 0 9
-7 5 -15 -3 -8 -1 -15 3 -15 8 0 27 -43 31 -68 1 -4 7 -14 14 -22 7 -8 25 -40
40 -70 30 -61 41 -81 72 -125 11 -16 23 -38 27 -47 3 -10 11 -18 17 -18 5 0
10 -6 10 -14 0 -7 18 -33 40 -57 22 -24 40 -49 40 -54 0 -6 9 -16 20 -23 11
-7 20 -16 20 -21 0 -10 59 -69 110 -111 17 -14 47 -40 67 -57 20 -18 42 -33
49 -33 7 0 25 -10 41 -23 15 -12 46 -29 68 -36 22 -7 47 -19 55 -26 8 -6 38
-18 65 -25 28 -7 63 -20 80 -28 18 -9 96 -20 210 -29 158 -12 204 -12 374 2
107 8 199 19 205 24 6 4 52 16 101 26 50 10 104 26 121 35 17 10 56 25 86 34
31 9 61 23 68 31 7 8 37 22 66 31 30 8 56 20 60 25 3 6 25 20 48 30 66 32 100
53 126 77 13 12 29 22 35 22 6 0 18 8 28 18 9 9 31 28 47 42 68 55 218 211
234 243 4 7 15 26 26 42 11 17 23 37 26 45 22 53 36 80 44 85 5 3 7 12 4 19
-3 7 2 20 10 29 8 8 13 17 10 20 -4 3 0 23 7 44 7 21 14 43 14 48 1 6 3 12 4
15 4 8 9 41 16 115 3 39 8 76 10 83 3 6 0 12 -5 12 -5 0 -10 10 -9 23 1 119
-16 239 -43 306 -6 14 -12 28 -12 31 -1 3 -19 23 -41 44 -73 69 -179 142 -246
168 l-67 26 -6 -30z m-2304 -230 c2 -29 0 -63 -5 -75 -9 -20 -11 -20 -25 -6
-14 14 -14 17 -1 27 11 8 14 25 11 59 -2 27 0 47 6 47 6 0 12 -24 14 -52z
m228 -789 c0 -6 -4 -7 -10 -4 -5 3 -10 11 -10 16 0 6 5 7 10 4 6 -3 10 -11 10
-16z"/>
<path d="M3300 3740 c0 -5 11 -10 25 -10 14 0 25 5 25 10 0 6 -11 10 -25 10
-14 0 -25 -4 -25 -10z"/>
<path d="M3594 3650 c-11 -4 -46 -6 -77 -5 -31 2 -57 0 -57 -6 0 -5 -15 -9
-32 -9 -62 0 -143 -8 -197 -19 -29 -6 -56 -11 -58 -11 -2 0 -1 -4 2 -10 6 -10
-17 -13 -85 -11 -35 1 -35 1 15 -20 27 -11 55 -25 61 -29 18 -16 117 -22 169
-12 78 16 160 48 241 92 41 23 74 43 74 46 0 7 -33 3 -56 -6z"/>
<path d="M1645 3610 c-19 -8 -19 -9 3 -9 12 -1 22 4 22 9 0 6 -1 10 -2 9 -2 0
-12 -4 -23 -9z"/>
<path d="M4793 3593 c9 -2 23 -2 30 0 6 3 -1 5 -18 5 -16 0 -22 -2 -12 -5z"/>
<path d="M1671 3571 c-8 -6 -9 -11 -3 -15 6 -3 14 -1 17 5 9 14 2 20 -14 10z"/>
<path d="M4813 3543 c7 -7 139 -5 146 3 2 2 -31 4 -74 4 -43 0 -75 -3 -72 -7z"/>
<path d="M4995 3510 c-18 -8 -17 -9 7 -9 15 -1 30 4 33 9 7 12 -12 12 -40 0z"/>
<path d="M4858 3493 c7 -3 16 -2 19 1 4 3 -2 6 -13 5 -11 0 -14 -3 -6 -6z"/>
<path d="M4923 3493 c9 -2 23 -2 30 0 6 3 -1 5 -18 5 -16 0 -22 -2 -12 -5z"/>
<path d="M4998 3467 c-27 -6 -48 -13 -48 -17 0 -8 99 6 132 19 22 9 21 10 -7
9 -16 0 -51 -5 -77 -11z"/>
<path d="M1408 3443 c6 -2 18 -2 25 0 6 3 1 5 -13 5 -14 0 -19 -2 -12 -5z"/>
<path d="M4918 3443 c7 -3 16 -2 19 1 4 3 -2 6 -13 5 -11 0 -14 -3 -6 -6z"/>
<path d="M5070 3429 c-19 -5 -55 -14 -80 -19 -42 -9 -41 -9 20 -5 36 2 81 11
100 19 39 17 17 20 -40 5z"/>
<path d="M5085 3382 c-33 -9 -51 -18 -40 -19 11 -2 52 6 90 16 45 12 59 19 40
19 -16 0 -57 -7 -90 -16z"/>
<path d="M4998 3353 c7 -3 16 -2 19 1 4 3 -2 6 -13 5 -11 0 -14 -3 -6 -6z"/>
<path d="M5105 3334 l-90 -24 65 6 c36 3 83 14 105 24 54 25 28 23 -80 -6z"/>
<path d="M5533 3343 c9 -2 23 -2 30 0 6 3 -1 5 -18 5 -16 0 -22 -2 -12 -5z"/>
<path d="M5158 3297 c-93 -24 -129 -42 -60 -31 62 10 202 53 172 53 -14 0 -64
-10 -112 -22z"/>
<path d="M5668 3303 c7 -3 16 -2 19 1 4 3 -2 6 -13 5 -11 0 -14 -3 -6 -6z"/>
<path d="M5750 3280 c-9 -6 -10 -10 -3 -10 6 0 15 5 18 10 8 12 4 12 -15 0z"/>
<path d="M5285 3273 c-16 -2 -55 -11 -85 -20 -30 -8 -80 -19 -110 -23 l-55 -7
50 -2 c28 0 102 12 165 29 105 26 116 34 35 23z"/>
<path d="M5775 3240 c-16 -7 -17 -9 -3 -9 9 -1 20 4 23 9 7 11 7 11 -20 0z"/>
<path d="M5305 3224 c-5 -2 -50 -13 -100 -23 -71 -15 -81 -20 -49 -20 22 -1
76 10 120 23 43 14 70 25 59 25 -11 -1 -24 -2 -30 -5z"/>
<path d="M5785 3195 c-16 -8 -23 -14 -15 -14 8 0 29 6 45 14 17 7 23 13 15 13
-8 0 -28 -6 -45 -13z"/>
<path d="M5242 3158 c-46 -11 -81 -23 -78 -25 6 -7 166 26 186 37 24 15 -14
10 -108 -12z"/>
<path d="M5815 3155 c-16 -8 -23 -14 -15 -14 8 0 26 6 40 14 32 18 15 18 -25
0z"/>
<path d="M5395 3138 c-22 -5 -78 -18 -125 -28 -57 -13 -74 -19 -50 -19 28 -1
206 38 245 53 20 8 -31 4 -70 -6z"/>
<path d="M5855 3121 c-22 -11 -34 -20 -27 -20 14 -1 72 27 72 34 0 7 0 7 -45
-14z"/>
<path d="M4828 3123 c12 -2 30 -2 40 0 9 3 -1 5 -23 4 -22 0 -30 -2 -17 -4z"/>
<path d="M5370 3079 c-58 -17 -60 -18 -20 -14 25 3 65 12 90 20 69 21 7 16
-70 -6z"/>
<path d="M5885 3083 c-16 -9 -25 -18 -19 -20 7 -2 27 5 45 16 40 25 18 28 -26
4z"/>
<path d="M4853 3073 c9 -2 25 -2 35 0 9 3 1 5 -18 5 -19 0 -27 -2 -17 -5z"/>
<path d="M5828 3053 c7 -3 16 -2 19 1 4 3 -2 6 -13 5 -11 0 -14 -3 -6 -6z"/>
<path d="M5900 3034 c-38 -21 -41 -24 -15 -19 17 4 37 12 45 19 8 8 22 16 30
19 13 5 13 5 0 6 -8 0 -35 -11 -60 -25z"/>
<path d="M6316 3047 c3 -10 9 -15 12 -12 3 3 0 11 -7 18 -10 9 -11 8 -5 -6z"/>
<path d="M5405 3035 c-38 -13 -38 -13 -10 -13 17 0 46 6 65 13 30 12 32 13 10
13 -14 0 -43 -6 -65 -13z"/>
<path d="M6380 3035 c-11 -13 -10 -14 4 -9 9 3 16 10 16 15 0 13 -6 11 -20 -6z"/>
<path d="M4878 3023 c6 -2 18 -2 25 0 6 3 1 5 -13 5 -14 0 -19 -2 -12 -5z"/>
<path d="M5930 2994 c-39 -21 -41 -24 -15 -19 17 4 39 15 50 26 25 25 20 24
-35 -7z"/>
<path d="M5465 2998 c-16 -5 -43 -14 -60 -19 -23 -6 -17 -7 24 -3 29 3 68 11
85 19 29 13 30 13 6 13 -14 0 -38 -4 -55 -10z"/>
<path d="M6356 2964 c-37 -19 -66 -38 -63 -40 6 -7 123 52 132 66 8 13 10 14
-69 -26z"/>
<path d="M5955 2954 c-22 -13 -51 -24 -64 -24 -13 0 -22 -3 -18 -6 10 -11 81
6 107 26 38 28 20 32 -25 4z"/>
<path d="M5555 2960 c-13 -5 -14 -9 -5 -9 8 0 24 4 35 9 13 5 14 9 5 9 -8 0
-24 -4 -35 -9z"/>
<path d="M868 2953 c6 -2 18 -2 25 0 6 3 1 5 -13 5 -14 0 -19 -2 -12 -5z"/>
<path d="M5495 2953 c-11 -3 -24 -10 -30 -15 -7 -8 -4 -9 8 -4 10 3 27 6 38 6
10 0 19 5 19 10 0 10 -3 11 -35 3z"/>
<path d="M6352 2903 c-41 -19 -71 -37 -68 -40 6 -6 156 64 156 72 0 9 -14 4
-88 -32z"/>
<path d="M4968 2923 c7 -3 16 -2 19 1 4 3 -2 6 -13 5 -11 0 -14 -3 -6 -6z"/>
<path d="M5977 2908 c-21 -11 -36 -22 -33 -25 5 -6 74 26 82 38 8 13 -6 9 -49
-13z"/>
<path d="M4608 2913 c7 -3 16 -2 19 1 4 3 -2 6 -13 5 -11 0 -14 -3 -6 -6z"/>
<path d="M5613 2913 c9 -2 23 -2 30 0 6 3 -1 5 -18 5 -16 0 -22 -2 -12 -5z"/>
<path d="M5505 2900 c-17 -7 -15 -9 10 -8 17 0 41 4 55 8 23 7 22 8 -10 8 -19
0 -44 -3 -55 -8z"/>
<path d="M6015 2873 c-27 -14 -45 -28 -39 -30 5 -2 35 10 65 27 66 36 44 39
-26 3z"/>
<path d="M6372 2853 c-39 -20 -70 -38 -68 -41 5 -5 156 65 156 73 0 10 -15 4
-88 -32z"/>
<path d="M5550 2857 c-47 -10 -51 -12 -23 -15 17 -2 53 4 80 12 57 17 24 19
-57 3z"/>
<path d="M6120 2861 c-38 -12 -113 -52 -107 -57 3 -3 24 4 48 17 24 12 59 27
78 34 38 14 23 18 -19 6z"/>
<path d="M6150 2815 c-36 -12 -78 -30 -95 -39 -16 -9 -37 -16 -45 -17 -8 0
-10 -3 -4 -5 6 -3 47 10 90 27 44 18 102 38 129 45 38 9 43 12 20 12 -16 0
-59 -10 -95 -23z"/>
<path d="M6445 2826 c-90 -40 -126 -58 -122 -62 5 -6 71 20 137 52 48 24 36
32 -15 10z"/>
<path d="M4978 2823 c7 -3 16 -2 19 1 4 3 -2 6 -13 5 -11 0 -14 -3 -6 -6z"/>
<path d="M778 2813 c7 -3 16 -2 19 1 4 3 -2 6 -13 5 -11 0 -14 -3 -6 -6z"/>
<path d="M5595 2813 c-38 -6 -58 -23 -24 -22 13 0 42 6 64 14 42 13 24 17 -40
8z"/>
<path d="M6180 2771 c-63 -21 -157 -64 -120 -55 14 3 52 17 85 29 33 13 76 28
95 33 19 6 26 10 15 11 -11 0 -45 -8 -75 -18z"/>
<path d="M4968 2773 c7 -3 16 -2 19 1 4 3 -2 6 -13 5 -11 0 -14 -3 -6 -6z"/>
<path d="M6395 2745 c-38 -18 -61 -33 -50 -33 11 -1 52 14 90 33 39 18 61 33
50 33 -11 1 -51 -14 -90 -33z"/>
<path d="M748 2763 c6 -2 18 -2 25 0 6 3 1 5 -13 5 -14 0 -19 -2 -12 -5z"/>
<path d="M5590 2757 c-70 -17 -15 -20 60 -3 57 12 60 14 25 14 -22 0 -60 -5
-85 -11z"/>
<path d="M5508 2743 c6 -2 18 -2 25 0 6 3 1 5 -13 5 -14 0 -19 -2 -12 -5z"/>
<path d="M6273 2733 c9 -2 25 -2 35 0 9 3 1 5 -18 5 -19 0 -27 -2 -17 -5z"/>
<path d="M6180 2718 c-14 -6 -42 -17 -63 -26 -20 -8 -36 -17 -34 -19 4 -3 148
44 155 52 9 9 -32 4 -58 -7z"/>
<path d="M5620 2710 c-23 -7 -22 -8 10 -8 19 0 46 4 60 8 23 7 22 8 -10 8 -19
0 -46 -4 -60 -8z"/>
<path d="M6413 2691 c-67 -29 -94 -48 -53 -36 44 13 146 63 130 64 -8 0 -43
-12 -77 -28z"/>
<path d="M6008 2703 c7 -3 16 -2 19 1 4 3 -2 6 -13 5 -11 0 -14 -3 -6 -6z"/>
<path d="M6173 2658 c-51 -17 -91 -34 -88 -36 2 -2 39 7 82 21 43 14 96 30
118 35 36 9 37 10 10 11 -16 0 -72 -14 -122 -31z"/>
<path d="M5705 2669 c-90 -13 -99 -19 -20 -13 39 3 74 9 80 15 5 5 7 8 5 8 -3
-1 -32 -5 -65 -10z"/>
<path d="M6423 2636 c-56 -23 -75 -36 -52 -36 20 1 137 58 119 58 -8 0 -38
-10 -67 -22z"/>
<path d="M6275 2633 c-11 -2 -55 -16 -99 -30 -43 -14 -102 -29 -130 -34 l-51
-8 55 4 c52 4 307 74 265 73 -11 0 -29 -2 -40 -5z"/>
<path d="M5650 2609 c-31 -6 -29 -6 15 -7 28 0 64 4 80 8 26 7 24 8 -15 7 -25
-1 -61 -5 -80 -8z"/>
<path d="M5423 2593 c9 -2 25 -2 35 0 9 3 1 5 -18 5 -19 0 -27 -2 -17 -5z"/>
<path d="M5553 2593 c9 -2 23 -2 30 0 6 3 -1 5 -18 5 -16 0 -22 -2 -12 -5z"/>
<path d="M6445 2584 c-22 -8 -48 -18 -57 -21 -10 -3 -18 -9 -18 -14 0 -12 0
-13 71 21 68 31 70 39 4 14z"/>
<path d="M613 2573 c15 -2 39 -2 55 0 15 2 2 4 -28 4 -30 0 -43 -2 -27 -4z"/>
<path d="M4918 2573 c7 -3 16 -2 19 1 4 3 -2 6 -13 5 -11 0 -14 -3 -6 -6z"/>
<path d="M5078 2573 c7 -3 16 -2 19 1 4 3 -2 6 -13 5 -11 0 -14 -3 -6 -6z"/>
<path d="M5805 2575 c-5 -2 -41 -6 -79 -10 -38 -4 -64 -11 -60 -15 5 -5 27 -5
49 0 22 5 55 10 73 10 17 0 32 5 32 10 0 6 -1 10 -2 9 -2 0 -7 -2 -13 -4z"/>
<path d="M6250 2573 c-14 -2 -51 -13 -83 -24 -31 -10 -65 -19 -75 -20 -10 0
-12 -3 -5 -6 7 -2 39 3 70 13 32 9 85 23 118 30 55 11 34 17 -25 7z"/>
<path d="M6425 2515 c-27 -14 -39 -22 -25 -19 38 9 107 42 90 43 -8 0 -37 -10
-65 -24z"/>
<path d="M6275 2520 c-42 -11 -1 -11 50 -1 34 7 35 9 10 9 -16 0 -43 -4 -60
-8z"/>
<path d="M5735 2513 c-27 -2 -54 -9 -60 -15 -7 -7 7 -8 44 -3 30 4 86 11 125
15 l71 7 -65 0 c-36 0 -87 -2 -115 -4z"/>
<path d="M6208 2503 c6 -2 18 -2 25 0 6 3 1 5 -13 5 -14 0 -19 -2 -12 -5z"/>
<path d="M5553 2493 c9 -2 23 -2 30 0 6 3 -1 5 -18 5 -16 0 -22 -2 -12 -5z"/>
<path d="M5613 2493 c9 -2 23 -2 30 0 6 3 -1 5 -18 5 -16 0 -22 -2 -12 -5z"/>
<path d="M6120 2484 l-45 -14 44 5 c42 6 96 26 61 23 -8 0 -35 -7 -60 -14z"/>
<path d="M6320 2470 l-45 -7 48 -1 c26 -1 47 3 47 8 0 6 -1 9 -2 8 -2 0 -23
-4 -48 -8z"/>
<path d="M6433 2460 c-24 -10 -43 -25 -43 -32 0 -8 3 -9 8 -2 4 5 28 18 55 28
26 10 47 20 47 22 0 9 -27 3 -67 -16z"/>
<path d="M5741 2459 c-34 -4 -68 -10 -75 -14 -15 -7 150 5 199 15 l40 8 -50 0
c-27 0 -79 -4 -114 -9z"/>
<path d="M5948 2453 c7 -3 16 -2 19 1 4 3 -2 6 -13 5 -11 0 -14 -3 -6 -6z"/>
<path d="M6190 2450 c-10 -7 -1 -8 30 -4 56 8 64 14 19 14 -19 0 -41 -5 -49
-10z"/>
<path d="M6138 2433 c7 -3 16 -2 19 1 4 3 -2 6 -13 5 -11 0 -14 -3 -6 -6z"/>
<path d="M5118 2423 c6 -2 18 -2 25 0 6 3 1 5 -13 5 -14 0 -19 -2 -12 -5z"/>
<path d="M6083 2423 c9 -2 23 -2 30 0 6 3 -1 5 -18 5 -16 0 -22 -2 -12 -5z"/>
<path d="M6458 2413 c-21 -8 -38 -19 -38 -24 0 -8 67 14 79 26 12 13 -8 11
-41 -2z"/>
<path d="M588 2413 c6 -2 18 -2 25 0 6 3 1 5 -13 5 -14 0 -19 -2 -12 -5z"/>
<path d="M5793 2411 c-45 -4 -85 -10 -90 -14 -4 -5 35 -5 87 -1 118 9 118 9
126 17 8 7 4 7 -123 -2z"/>
<path d="M6270 2410 l-55 -7 45 -1 c25 0 63 3 85 7 33 7 34 9 10 8 -16 0 -55
-3 -85 -7z"/>
<path d="M6188 2393 c7 -3 16 -2 19 1 4 3 -2 6 -13 5 -11 0 -14 -3 -6 -6z"/>
<path d="M6128 2383 c7 -3 16 -2 19 1 4 3 -2 6 -13 5 -11 0 -14 -3 -6 -6z"/>
<path d="M6395 2370 c-3 -5 -26 -10 -51 -10 -53 0 -236 -21 -230 -27 10 -10
272 20 286 33 8 8 11 14 8 14 -4 0 -10 -4 -13 -10z"/>
<path d="M563 2363 c9 -2 25 -2 35 0 9 3 1 5 -18 5 -19 0 -27 -2 -17 -5z"/>
<path d="M6440 2338 c-47 -27 -69 -32 -150 -38 l-95 -7 88 -1 c79 -2 93 1 142
27 30 16 60 31 67 34 7 2 11 7 8 10 -3 3 -30 -8 -60 -25z"/>
<path d="M5705 2350 l-60 -7 80 0 c44 0 114 3 155 7 l75 7 -95 0 c-52 0 -122
-3 -155 -7z"/>
<path d="M5168 2323 c6 -2 18 -2 25 0 6 3 1 5 -13 5 -14 0 -19 -2 -12 -5z"/>
<path d="M538 2313 c12 -2 30 -2 40 0 9 3 -1 5 -23 4 -22 0 -30 -2 -17 -4z"/>
<path d="M5760 2301 c-35 -5 -40 -8 -23 -13 30 -8 104 2 97 13 -3 5 -11 8 -17
7 -7 0 -32 -4 -57 -7z"/>
<path d="M5865 2300 c-13 -6 2 -7 40 -3 33 3 62 7 64 9 9 8 -85 2 -104 -6z"/>
<path d="M6470 2295 c-14 -16 -10 -18 14 -9 9 3 16 10 16 15 0 14 -16 11 -30
-6z"/>
<path d="M6123 2283 c9 -2 23 -2 30 0 6 3 -1 5 -18 5 -16 0 -22 -2 -12 -5z"/>
<path d="M2193 2273 c9 -2 25 -2 35 0 9 3 1 5 -18 5 -19 0 -27 -2 -17 -5z"/>
<path d="M498 2263 c12 -2 32 -2 45 0 12 2 2 4 -23 4 -25 0 -35 -2 -22 -4z"/>
<path d="M6416 2263 c-4 -4 -28 -10 -54 -14 l-47 -6 40 -1 c37 -1 119 25 84
27 -9 1 -19 -2 -23 -6z"/>
<path d="M5790 2250 c-33 -4 -40 -7 -27 -13 10 -4 60 -2 110 3 51 6 109 8 131
4 28 -4 37 -3 31 5 -7 12 -143 12 -245 1z"/>
<path d="M6180 2240 c-13 -8 -12 -10 3 -10 9 0 17 5 17 10 0 12 -1 12 -20 0z"/>
<path d="M6225 2240 c-7 -12 19 -12 55 0 22 7 21 8 -12 9 -20 1 -40 -3 -43 -9z"/>
<path d="M6485 2241 c-19 -32 -82 -46 -235 -51 l-155 -6 151 -2 c116 -2 160 2
185 13 42 18 74 43 67 51 -3 3 -9 0 -13 -5z"/>
<path d="M4378 2223 c7 -3 16 -2 19 1 4 3 -2 6 -13 5 -11 0 -14 -3 -6 -6z"/>
<path d="M338 2213 c6 -2 18 -2 25 0 6 3 1 5 -13 5 -14 0 -19 -2 -12 -5z"/>
<path d="M468 2213 c18 -2 45 -2 60 0 15 2 0 4 -33 4 -33 0 -45 -2 -27 -4z"/>
<path d="M5776 2191 c-3 -4 66 -8 153 -7 88 1 157 4 154 9 -6 10 -301 9 -307
-2z"/>
<path d="M5248 2173 c6 -2 18 -2 25 0 6 3 1 5 -13 5 -14 0 -19 -2 -12 -5z"/>
<path d="M433 2163 c9 -2 25 -2 35 0 9 3 1 5 -18 5 -19 0 -27 -2 -17 -5z"/>
<path d="M5163 2163 c9 -2 23 -2 30 0 6 3 -1 5 -18 5 -16 0 -22 -2 -12 -5z"/>
<path d="M6437 2155 c-22 -8 -83 -16 -138 -18 -54 -1 -102 -7 -106 -11 -4 -5
44 -6 108 -3 87 4 127 10 160 25 50 23 33 28 -24 7z"/>
<path d="M5805 2139 c-28 -4 -12 -7 53 -8 52 0 91 3 88 8 -6 10 -79 10 -141 0z"/>
<path d="M6088 2133 c18 -2 45 -2 60 0 15 2 0 4 -33 4 -33 0 -45 -2 -27 -4z"/>
<path d="M400 2110 c0 -6 19 -8 46 -6 64 7 68 16 6 16 -29 0 -52 -5 -52 -10z"/>
<path d="M3768 2113 c6 -2 18 -2 25 0 6 3 1 5 -13 5 -14 0 -19 -2 -12 -5z"/>
<path d="M6450 2097 c-14 -6 -86 -14 -160 -17 l-135 -7 150 1 c126 1 154 4
175 19 28 19 9 22 -30 4z"/>
<path d="M2543 2093 c9 -2 23 -2 30 0 6 3 -1 5 -18 5 -16 0 -22 -2 -12 -5z"/>
<path d="M5805 2081 c11 -4 83 -4 160 -1 l140 7 -160 1 c-88 0 -151 -3 -140
-7z"/>
<path d="M430 2060 c-35 -7 -35 -7 -5 -9 17 0 37 4 45 9 17 11 11 11 -40 0z"/>
<path d="M3963 2063 c9 -2 23 -2 30 0 6 3 -1 5 -18 5 -16 0 -22 -2 -12 -5z"/>
<path d="M2718 2043 c7 -3 16 -2 19 1 4 3 -2 6 -13 5 -11 0 -14 -3 -6 -6z"/>
<path d="M5553 2043 c9 -2 25 -2 35 0 9 3 1 5 -18 5 -19 0 -27 -2 -17 -5z"/>
<path d="M6435 2034 c-30 -11 -73 -13 -185 -10 -142 5 -142 4 -35 -4 191 -15
197 -14 245 8 52 23 35 28 -25 6z"/>
<path d="M5815 2030 c7 -12 165 -11 165 1 0 5 -39 9 -86 9 -53 0 -83 -4 -79
-10z"/>
<path d="M6018 2033 c12 -2 32 -2 45 0 12 2 2 4 -23 4 -25 0 -35 -2 -22 -4z"/>
<path d="M193 2003 c9 -2 25 -2 35 0 9 3 1 5 -18 5 -19 0 -27 -2 -17 -5z"/>
<path d="M423 2003 c9 -2 23 -2 30 0 6 3 -1 5 -18 5 -16 0 -22 -2 -12 -5z"/>
<path d="M3223 2003 c9 -2 23 -2 30 0 6 3 -1 5 -18 5 -16 0 -22 -2 -12 -5z"/>
<path d="M5638 1983 c7 -3 16 -2 19 1 4 3 -2 6 -13 5 -11 0 -14 -3 -6 -6z"/>
<path d="M5805 1980 c19 -8 363 -14 354 -6 -2 2 -87 6 -189 9 -109 3 -177 2
-165 -3z"/>
<path d="M6440 1978 c-14 -5 -72 -10 -130 -10 l-105 0 109 -9 c97 -8 113 -6
150 10 43 20 22 28 -24 9z"/>
<path d="M410 1950 c0 -13 20 -13 40 0 12 8 9 10 -12 10 -16 0 -28 -4 -28 -10z"/>
<path d="M4278 1953 c7 -3 16 -2 19 1 4 3 -2 6 -13 5 -11 0 -14 -3 -6 -6z"/>
<path d="M4328 1953 c7 -3 16 -2 19 1 4 3 -2 6 -13 5 -11 0 -14 -3 -6 -6z"/>
<path d="M3108 1943 c7 -3 16 -2 19 1 4 3 -2 6 -13 5 -11 0 -14 -3 -6 -6z"/>
<path d="M4443 1943 c9 -2 23 -2 30 0 6 3 -1 5 -18 5 -16 0 -22 -2 -12 -5z"/>
<path d="M40 1929 c0 -8 11 -30 25 -49 22 -30 25 -31 25 -12 0 12 -4 22 -10
22 -5 0 -16 12 -24 28 -9 16 -15 21 -16 11z"/>
<path d="M4518 1933 c7 -3 16 -2 19 1 4 3 -2 6 -13 5 -11 0 -14 -3 -6 -6z"/>
<path d="M5638 1933 c6 -2 18 -2 25 0 6 3 1 5 -13 5 -14 0 -19 -2 -12 -5z"/>
<path d="M5758 1933 c7 -3 16 -2 19 1 4 3 -2 6 -13 5 -11 0 -14 -3 -6 -6z"/>
<path d="M5845 1921 c32 -8 245 -4 254 4 2 3 -61 4 -140 4 -79 -1 -130 -4
-114 -8z"/>
<path d="M6435 1917 c-25 -8 -64 -10 -110 -5 -38 4 -88 7 -110 6 l-40 0 40 -8
c22 -5 83 -10 135 -11 73 -2 102 1 125 14 35 19 17 21 -40 4z"/>
<path d="M448 1915 c-3 -3 -34 -10 -69 -14 l-64 -8 61 -2 c39 -1 67 4 80 14
10 8 14 15 8 15 -6 0 -13 -2 -16 -5z"/>
<path d="M3783 1903 c9 -2 23 -2 30 0 6 3 -1 5 -18 5 -16 0 -22 -2 -12 -5z"/>
<path d="M4863 1873 c9 -2 23 -2 30 0 6 3 -1 5 -18 5 -16 0 -22 -2 -12 -5z"/>
<path d="M5820 1870 c25 -8 337 -14 329 -6 -2 2 -83 6 -179 9 -96 2 -164 1
-150 -3z"/>
<path d="M6441 1862 c-24 -9 -46 -22 -48 -29 -3 -7 17 -3 51 10 31 12 56 25
56 30 0 10 -9 8 -59 -11z"/>
<path d="M6185 1861 c43 -13 171 -20 187 -10 8 5 -14 9 -53 9 -36 0 -88 2
-115 5 -40 4 -43 3 -19 -4z"/>
<path d="M380 1851 l-35 -7 32 -8 c23 -5 39 -3 55 8 21 15 21 16 3 15 -11 -1
-36 -5 -55 -8z"/>
<path d="M5598 1833 c7 -3 16 -2 19 1 4 3 -2 6 -13 5 -11 0 -14 -3 -6 -6z"/>
<path d="M5718 1833 c7 -3 16 -2 19 1 4 3 -2 6 -13 5 -11 0 -14 -3 -6 -6z"/>
<path d="M6433 1804 c-29 -13 -53 -28 -53 -33 0 -11 119 40 120 52 0 11 -9 8
-67 -19z"/>
<path d="M5857 1811 c23 -4 102 -4 175 -1 l133 7 -175 0 c-96 0 -156 -3 -133
-6z"/>
<path d="M380 1800 c-14 -4 -45 -9 -70 -10 -42 -3 -40 -3 20 -10 61 -7 100 2
100 22 0 10 -16 9 -50 -2z"/>
<path d="M6188 1803 c12 -2 32 -2 45 0 12 2 2 4 -23 4 -25 0 -35 -2 -22 -4z"/>
<path d="M3618 1793 c7 -3 16 -2 19 1 4 3 -2 6 -13 5 -11 0 -14 -3 -6 -6z"/>
<path d="M6270 1794 c36 -8 100 -9 100 -2 0 5 -26 7 -57 7 -32 -1 -51 -3 -43
-5z"/>
<path d="M100 1774 c0 -6 15 -29 33 -53 24 -31 33 -38 35 -25 2 9 -12 33 -32
53 -20 19 -36 31 -36 25z"/>
<path d="M2578 1773 c6 -2 18 -2 25 0 6 3 1 5 -13 5 -14 0 -19 -2 -12 -5z"/>
<path d="M5890 1760 c-20 -4 42 -8 144 -9 99 0 177 1 175 3 -8 7 -286 13 -319
6z"/>
<path d="M6429 1750 c-32 -17 -69 -50 -56 -50 3 0 25 11 48 25 24 14 52 25 62
25 9 0 17 5 17 10 0 15 -31 11 -71 -10z"/>
<path d="M346 1745 c-28 -12 -29 -13 -8 -19 12 -4 22 -11 22 -15 0 -10 -44
-28 -80 -34 -15 -3 -8 -5 18 -6 47 -1 59 -25 20 -40 -18 -6 -19 -9 -5 -14 22
-8 22 -33 0 -41 -15 -6 -15 -8 2 -19 16 -13 16 -14 0 -31 -17 -16 -17 -18 1
-30 17 -13 17 -14 -4 -25 -11 -6 -29 -11 -39 -12 -10 -1 -2 -5 17 -9 39 -9 65
4 55 28 -3 8 0 21 6 28 6 8 9 20 6 28 -3 7 1 23 9 34 10 14 11 23 4 27 -8 5
-8 11 0 20 7 8 9 23 6 33 -4 11 0 24 9 32 11 9 12 16 5 25 -7 9 -6 16 5 25 35
29 4 39 -49 15z"/>
<path d="M1103 1753 c9 -2 23 -2 30 0 6 3 -1 5 -18 5 -16 0 -22 -2 -12 -5z"/>
<path d="M5468 1743 c7 -3 16 -2 19 1 4 3 -2 6 -13 5 -11 0 -14 -3 -6 -6z"/>
<path d="M6258 1743 c12 -2 30 -2 40 0 9 3 -1 5 -23 4 -22 0 -30 -2 -17 -4z"/>
<path d="M6333 1733 c9 -2 23 -2 30 0 6 3 -1 5 -18 5 -16 0 -22 -2 -12 -5z"/>
<path d="M5738 1723 c7 -3 16 -2 19 1 4 3 -2 6 -13 5 -11 0 -14 -3 -6 -6z"/>
<path d="M5778 1713 c7 -3 16 -2 19 1 4 3 -2 6 -13 5 -11 0 -14 -3 -6 -6z"/>
<path d="M6415 1689 c-60 -38 -60 -38 -53 -44 3 -4 22 5 42 19 20 13 50 27 66
31 17 4 30 11 30 16 0 18 -36 8 -85 -22z"/>
<path d="M490 1700 c-18 -12 -2 -12 25 0 13 6 15 9 5 9 -8 0 -22 -4 -30 -9z"/>
<path d="M1028 1703 c12 -2 30 -2 40 0 9 3 -1 5 -23 4 -22 0 -30 -2 -17 -4z"/>
<path d="M5842 1705 c8 -8 211 -12 268 -5 39 5 6 8 -109 9 -90 0 -162 -1 -159
-4z"/>
<path d="M5258 1693 c7 -3 16 -2 19 1 4 3 -2 6 -13 5 -11 0 -14 -3 -6 -6z"/>
<path d="M5398 1693 c17 -2 47 -2 65 0 17 2 3 4 -33 4 -36 0 -50 -2 -32 -4z"/>
<path d="M6208 1693 c12 -2 30 -2 40 0 9 3 -1 5 -23 4 -22 0 -30 -2 -17 -4z"/>
<path d="M5523 1683 c9 -2 23 -2 30 0 6 3 -1 5 -18 5 -16 0 -22 -2 -12 -5z"/>
<path d="M6295 1680 c39 -10 70 -12 62 -3 -4 4 -26 8 -50 9 -37 2 -39 1 -12
-6z"/>
<path d="M130 1675 c0 -24 33 -65 53 -65 16 0 18 3 9 9 -8 4 -19 19 -25 31
-11 22 -37 39 -37 25z"/>
<path d="M5668 1673 c6 -2 18 -2 25 0 6 3 1 5 -13 5 -14 0 -19 -2 -12 -5z"/>
<path d="M5760 1660 c25 -8 87 -13 79 -6 -2 2 -26 6 -54 9 -34 4 -42 3 -25 -3z"/>
<path d="M6424 1639 c-64 -33 -81 -46 -72 -54 3 -3 17 4 31 15 15 12 47 28 72
36 25 9 45 20 45 25 0 15 -15 11 -76 -22z"/>
<path d="M493 1650 c-13 -5 -23 -11 -23 -14 0 -6 60 11 68 19 8 8 -20 5 -45
-5z"/>
<path d="M5890 1650 c-14 -5 51 -8 144 -9 93 -1 167 1 165 3 -8 9 -284 13
-309 6z"/>
<path d="M0 1641 c0 -6 4 -13 10 -16 6 -3 7 1 4 9 -7 18 -14 21 -14 7z"/>
<path d="M5218 1643 c12 -2 32 -2 45 0 12 2 2 4 -23 4 -25 0 -35 -2 -22 -4z"/>
<path d="M5408 1643 c7 -3 16 -2 19 1 4 3 -2 6 -13 5 -11 0 -14 -3 -6 -6z"/>
<path d="M5448 1633 c7 -3 16 -2 19 1 4 3 -2 6 -13 5 -11 0 -14 -3 -6 -6z"/>
<path d="M6248 1633 c7 -3 16 -2 19 1 4 3 -2 6 -13 5 -11 0 -14 -3 -6 -6z"/>
<path d="M430 1620 c-8 -5 -10 -10 -5 -10 6 0 17 5 25 10 8 5 11 10 5 10 -5 0
-17 -5 -25 -10z"/>
<path d="M5608 1623 c6 -2 18 -2 25 0 6 3 1 5 -13 5 -14 0 -19 -2 -12 -5z"/>
<path d="M6293 1623 c9 -2 25 -2 35 0 9 3 1 5 -18 5 -19 0 -27 -2 -17 -5z"/>
<path d="M5703 1613 c9 -2 25 -2 35 0 9 3 1 5 -18 5 -19 0 -27 -2 -17 -5z"/>
<path d="M484 1596 c-10 -8 -17 -16 -14 -19 8 -8 50 11 50 23 0 14 -13 13 -36
-4z"/>
<path d="M943 1603 c9 -2 25 -2 35 0 9 3 1 5 -18 5 -19 0 -27 -2 -17 -5z"/>
<path d="M6430 1599 c-34 -14 -90 -58 -90 -71 0 -7 12 0 28 13 33 30 74 49
107 49 14 0 25 5 25 10 0 13 -37 12 -70 -1z"/>
<path d="M92 1539 c24 -35 50 -79 57 -96 7 -18 17 -33 22 -33 14 0 11 7 -29
73 -47 79 -64 101 -81 112 -8 4 6 -21 31 -56z"/>
<path d="M888 1593 c7 -3 16 -2 19 1 4 3 -2 6 -13 5 -11 0 -14 -3 -6 -6z"/>
<path d="M4968 1593 c6 -2 18 -2 25 0 6 3 1 5 -13 5 -14 0 -19 -2 -12 -5z"/>
<path d="M5975 1591 c72 -4 146 -3 165 0 19 4 -39 6 -130 6 l-165 -1 130 -5z"/>
<path d="M130 1587 c0 -13 34 -77 40 -77 14 0 -2 49 -21 66 -10 9 -19 14 -19
11z"/>
<path d="M5383 1583 c9 -2 23 -2 30 0 6 3 -1 5 -18 5 -16 0 -22 -2 -12 -5z"/>
<path d="M6200 1581 c40 -13 148 -23 130 -12 -8 5 -46 11 -85 14 -42 4 -60 3
-45 -2z"/>
<path d="M435 1560 c-3 -6 1 -7 9 -4 18 7 21 14 7 14 -6 0 -13 -4 -16 -10z"/>
<path d="M4263 1563 c9 -2 25 -2 35 0 9 3 1 5 -18 5 -19 0 -27 -2 -17 -5z"/>
<path d="M5653 1563 c9 -2 25 -2 35 0 9 3 1 5 -18 5 -19 0 -27 -2 -17 -5z"/>
<path d="M908 1553 c12 -2 30 -2 40 0 9 3 -1 5 -23 4 -22 0 -30 -2 -17 -4z"/>
<path d="M4443 1553 c9 -2 23 -2 30 0 6 3 -1 5 -18 5 -16 0 -22 -2 -12 -5z"/>
<path d="M5765 1550 c3 -5 8 -10 11 -10 2 0 4 5 4 10 0 6 -5 10 -11 10 -5 0
-7 -4 -4 -10z"/>
<path d="M6426 1545 c-33 -12 -86 -51 -107 -79 -4 -5 -49 -2 -104 8 -117 19
-154 20 -65 0 140 -31 155 -30 201 10 28 24 59 39 95 46 30 6 54 16 54 21 0
13 -28 11 -74 -6z"/>
<path d="M20 1546 c0 -2 7 -7 16 -10 8 -3 12 -2 9 4 -6 10 -25 14 -25 6z"/>
<path d="M454 1519 c-27 -29 -27 -31 -5 -19 22 11 23 11 16 -6 -4 -11 -9 -28
-10 -39 -4 -39 -18 -85 -24 -81 -3 2 -7 -18 -8 -46 -1 -27 -9 -60 -17 -73 -11
-17 -12 -25 -3 -28 8 -2 7 -11 -6 -30 -10 -15 -13 -27 -7 -27 24 0 -14 -43
-53 -61 -30 -13 -36 -19 -20 -19 12 0 25 5 28 10 3 6 16 10 28 10 20 -1 19 -3
-12 -32 l-35 -31 29 7 c28 7 28 7 13 -16 -9 -13 -33 -29 -54 -36 l-39 -12 48
5 c59 6 61 -9 5 -36 l-43 -19 45 6 45 7 -19 -21 c-10 -11 -28 -23 -40 -25 -11
-2 -4 -5 18 -6 33 -1 37 -3 26 -16 -17 -20 -70 -20 -70 0 0 17 -17 50 -41 80
-9 11 -20 30 -24 43 -5 19 -3 22 22 23 28 1 28 1 3 8 -28 8 -79 98 -79 141 0
25 0 25 15 5 18 -23 18 -21 -19 58 -15 31 -29 76 -32 100 l-6 42 20 -35 c11
-19 20 -33 21 -30 1 14 -68 160 -83 175 -20 20 -22 7 -4 -20 8 -11 17 -30 20
-43 4 -18 2 -22 -10 -18 -12 5 -14 2 -8 -16 4 -13 8 -34 9 -48 1 -14 5 -36 9
-50 4 -14 13 -43 19 -65 19 -72 38 -124 69 -187 5 -10 9 -24 9 -32 0 -13 17
-51 42 -96 4 -8 11 -22 14 -30 3 -8 12 -28 20 -43 18 -37 18 -47 -3 -48 -14 0
-15 -2 -3 -6 25 -9 50 -35 44 -45 -7 -11 -63 -1 -82 15 -7 5 -15 8 -17 5 -5
-5 6 -11 78 -41 41 -18 50 -47 15 -47 l-23 0 24 -13 c27 -14 27 -34 1 -29 -19
3 -38 -30 -21 -36 6 -2 11 -12 11 -22 0 -10 7 -21 16 -24 9 -3 14 -13 11 -20
-3 -8 1 -17 10 -21 13 -4 14 -8 4 -18 -10 -9 -15 -8 -27 7 -8 11 -14 14 -14 7
0 -8 -8 -10 -22 -6 -13 3 -5 -4 17 -17 50 -29 61 -62 18 -53 l-28 5 30 -11
c69 -26 82 -74 14 -50 -18 6 -34 9 -37 6 -6 -5 43 -25 62 -25 7 0 21 -9 31
-20 18 -20 17 -20 -9 -20 -15 0 -40 7 -56 15 -17 9 -30 13 -30 10 0 -2 28 -19
61 -36 39 -19 58 -34 52 -40 -6 -6 -20 -6 -38 1 -48 18 -37 4 17 -21 51 -24
51 -24 22 -30 l-29 -5 35 -22 35 -23 -31 3 c-28 3 -64 27 -64 43 0 3 -8 18
-19 33 -127 185 -207 322 -202 345 1 5 -8 23 -19 42 -11 18 -20 42 -20 53 0
12 -10 37 -21 57 -12 20 -19 38 -16 42 9 8 -31 83 -44 83 -6 0 -9 -6 -6 -12
19 -48 20 -51 9 -44 -18 11 -14 -15 5 -37 13 -15 15 -21 5 -24 -9 -4 -7 -12 8
-33 11 -15 20 -39 20 -52 0 -12 7 -32 15 -42 8 -10 12 -22 10 -26 -3 -4 2 -13
10 -20 8 -7 15 -19 15 -26 0 -8 6 -23 12 -35 11 -17 10 -22 -7 -36 -20 -15
-20 -15 3 -8 17 5 24 1 31 -17 7 -19 5 -24 -13 -30 -19 -5 -18 -6 5 -7 15 -1
30 -8 33 -17 9 -23 8 -24 -16 -25 -14 -1 -10 -4 12 -8 27 -5 35 -11 33 -26 -1
-10 6 -24 14 -31 10 -7 14 -18 9 -29 -5 -15 -15 -17 -64 -12 -43 4 -51 3 -32
-5 14 -5 48 -8 75 -6 44 3 50 1 50 -17 0 -12 -8 -21 -20 -23 -33 -6 -42 -22
-13 -22 15 0 28 5 30 11 4 11 38 2 38 -11 0 -5 -7 -15 -15 -24 -21 -21 -19
-29 5 -16 28 15 41 5 30 -25 -7 -19 -6 -24 9 -27 15 -2 17 -8 10 -26 -11 -30
-61 -29 -136 3 -48 21 -53 22 -33 6 36 -28 103 -45 151 -37 l42 7 -6 -29 -6
-30 183 -1 184 -2 7 58 c8 65 30 100 52 82 8 -8 13 -8 13 -1 0 6 -24 18 -52
28 -29 9 -71 27 -94 40 -22 13 -52 24 -67 24 -14 0 -28 4 -31 9 -3 5 -15 11
-26 14 -17 4 -18 2 -9 -14 11 -21 -3 -26 -19 -6 -13 15 -55 177 -48 185 3 3 1
11 -5 18 -6 7 -13 51 -15 96 -2 46 -4 83 -4 83 -1 0 -3 20 -6 44 -2 25 -12 54
-22 65 -16 18 -16 19 1 13 11 -4 17 -1 17 8 0 9 -8 14 -21 12 -12 -1 -24 4
-26 11 -4 9 2 11 21 6 27 -6 30 0 29 69 0 14 10 17 51 19 l51 2 -48 3 -47 4 4
47 c6 65 17 125 26 137 4 6 8 17 8 25 2 28 25 125 31 130 3 3 7 14 8 25 1 21
8 54 17 83 13 40 15 142 3 142 -7 1 -1 9 12 20 23 20 22 21 -19 33 -10 2 -6 9
15 20 l30 16 -26 1 c-16 0 -36 -12 -55 -31z m-84 -670 c0 -3 -10 -11 -22 -16
l-23 -11 25 -10 c22 -9 23 -11 7 -17 -22 -9 -33 1 -42 35 -5 23 -3 25 25 25
16 0 30 -3 30 -6z m-5 -277 c-3 -3 -11 0 -18 7 -9 10 -8 11 6 5 10 -3 15 -9
12 -12z m86 -450 c-14 -5 -61 24 -61 38 0 5 16 0 37 -12 20 -12 31 -24 24 -26z"/>
<path d="M4888 1543 c7 -3 16 -2 19 1 4 3 -2 6 -13 5 -11 0 -14 -3 -6 -6z"/>
<path d="M5803 1543 c9 -2 23 -2 30 0 6 3 -1 5 -18 5 -16 0 -22 -2 -12 -5z"/>
<path d="M5858 1543 c6 -2 18 -2 25 0 6 3 1 5 -13 5 -14 0 -19 -2 -12 -5z"/>
<path d="M6035 1540 c-46 -6 -44 -7 29 -8 44 -1 77 0 75 2 -11 9 -59 12 -104
6z"/>
<path d="M5097 1533 c18 -2 50 -2 70 0 21 2 7 4 -32 4 -38 0 -55 -2 -38 -4z"/>
<path d="M5228 1533 c12 -2 32 -2 45 0 12 2 2 4 -23 4 -25 0 -35 -2 -22 -4z"/>
<path d="M5308 1533 c6 -2 18 -2 25 0 6 3 1 5 -13 5 -14 0 -19 -2 -12 -5z"/>
<path d="M5388 1533 c12 -2 30 -2 40 0 9 3 -1 5 -23 4 -22 0 -30 -2 -17 -4z"/>
<path d="M6151 1536 c2 -2 40 -11 84 -20 57 -10 83 -12 90 -4 7 7 6 9 -1 5 -6
-3 -42 1 -80 9 -69 14 -101 18 -93 10z"/>
<path d="M748 1523 c6 -2 18 -2 25 0 6 3 1 5 -13 5 -14 0 -19 -2 -12 -5z"/>
<path d="M5528 1523 c6 -2 18 -2 25 0 6 3 1 5 -13 5 -14 0 -19 -2 -12 -5z"/>
<path d="M5613 1513 c9 -2 23 -2 30 0 6 3 -1 5 -18 5 -16 0 -22 -2 -12 -5z"/>
<path d="M258 1503 c7 -3 16 -2 19 1 4 3 -2 6 -13 5 -11 0 -14 -3 -6 -6z"/>
<path d="M820 1500 c-21 -7 -21 -8 -5 -9 11 0 27 4 35 9 18 11 5 11 -30 0z"/>
<path d="M5681 1506 c2 -2 27 -6 54 -9 34 -4 42 -3 25 3 -25 8 -87 13 -79 6z"/>
<path d="M5840 1490 c-20 -6 -21 -8 -5 -8 11 0 29 3 40 8 25 11 -1 11 -35 0z"/>
<path d="M5988 1493 c7 -3 16 -2 19 1 4 3 -2 6 -13 5 -11 0 -14 -3 -6 -6z"/>
<path d="M6411 1490 c-18 -4 -43 -18 -55 -31 -11 -13 -14 -18 -6 -12 9 7 46
17 83 24 37 7 67 16 67 21 0 10 -43 9 -89 -2z"/>
<path d="M4977 1483 c18 -2 50 -2 70 0 21 2 7 4 -32 4 -38 0 -55 -2 -38 -4z"/>
<path d="M5378 1473 c12 -2 32 -2 45 0 12 2 2 4 -23 4 -25 0 -35 -2 -22 -4z"/>
<path d="M698 1463 c6 -2 18 -2 25 0 6 3 1 5 -13 5 -14 0 -19 -2 -12 -5z"/>
<path d="M5558 1463 c7 -3 16 -2 19 1 4 3 -2 6 -13 5 -11 0 -14 -3 -6 -6z"/>
<path d="M4193 1453 c9 -2 25 -2 35 0 9 3 1 5 -18 5 -19 0 -27 -2 -17 -5z"/>
<path d="M5648 1453 c6 -2 18 -2 25 0 6 3 1 5 -13 5 -14 0 -19 -2 -12 -5z"/>
<path d="M5870 1448 c-14 -5 -54 -8 -90 -5 -55 4 -60 4 -30 -5 42 -12 157 -5
173 11 14 14 -18 14 -53 -1z"/>
<path d="M745 1440 c-25 -11 1 -11 35 0 20 6 21 8 5 8 -11 0 -29 -3 -40 -8z"/>
<path d="M6475 1445 c-5 -2 -31 -6 -57 -10 -26 -3 -57 -15 -70 -26 -19 -17
-20 -19 -3 -11 11 5 43 13 70 16 65 9 85 15 85 27 0 9 -7 10 -25 4z"/>
<path d="M419 1423 c-13 -16 -12 -17 4 -4 16 13 21 21 13 21 -2 0 -10 -8 -17
-17z"/>
<path d="M4838 1433 c23 -2 61 -2 85 0 23 2 4 4 -43 4 -47 0 -66 -2 -42 -4z"/>
<path d="M6095 1431 c11 -5 60 -16 108 -26 66 -13 91 -15 100 -6 8 8 2 11 -25
11 -20 0 -72 7 -115 15 -87 17 -97 18 -68 6z"/>
<path d="M5293 1423 c9 -2 23 -2 30 0 6 3 -1 5 -18 5 -16 0 -22 -2 -12 -5z"/>
<path d="M280 1404 l-35 -13 36 0 c21 -1 42 5 49 14 16 19 1 19 -50 -1z"/>
<path d="M3608 1403 c6 -2 18 -2 25 0 6 3 1 5 -13 5 -14 0 -19 -2 -12 -5z"/>
<path d="M5603 1403 c9 -2 23 -2 30 0 6 3 -1 5 -18 5 -16 0 -22 -2 -12 -5z"/>
<path d="M5665 1400 c11 -5 27 -9 35 -9 9 0 8 4 -5 9 -11 5 -27 9 -35 9 -9 0
-8 -4 5 -9z"/>
<path d="M5895 1400 c-3 -5 -25 -10 -48 -10 -31 0 -38 -3 -30 -11 9 -9 23 -9
58 1 46 13 69 30 41 30 -8 0 -18 -4 -21 -10z"/>
<path d="M710 1390 c-10 -6 -2 -7 25 -3 49 7 58 13 19 13 -16 0 -36 -5 -44
-10z"/>
<path d="M5993 1393 c9 -2 23 -2 30 0 6 3 -1 5 -18 5 -16 0 -22 -2 -12 -5z"/>
<path d="M1048 1383 c6 -2 18 -2 25 0 6 3 1 5 -13 5 -14 0 -19 -2 -12 -5z"/>
<path d="M2658 1383 c7 -3 16 -2 19 1 4 3 -2 6 -13 5 -11 0 -14 -3 -6 -6z"/>
<path d="M5743 1383 c9 -2 23 -2 30 0 6 3 -1 5 -18 5 -16 0 -22 -2 -12 -5z"/>
<path d="M6048 1383 c6 -2 18 -2 25 0 6 3 1 5 -13 5 -14 0 -19 -2 -12 -5z"/>
<path d="M6410 1383 c-46 -8 -90 -24 -90 -34 0 -6 4 -8 8 -5 5 3 39 10 77 16
80 13 120 30 65 28 -19 0 -46 -3 -60 -5z"/>
<path d="M4893 1373 c9 -2 23 -2 30 0 6 3 -1 5 -18 5 -16 0 -22 -2 -12 -5z"/>
<path d="M4963 1373 c15 -2 39 -2 55 0 15 2 2 4 -28 4 -30 0 -43 -2 -27 -4z"/>
<path d="M6092 1374 c3 -3 41 -11 84 -19 44 -8 87 -17 97 -20 9 -4 17 -3 17 2
0 5 -6 10 -12 10 -7 1 -48 8 -91 17 -85 17 -104 19 -95 10z"/>
<path d="M3588 1353 c12 -2 32 -2 45 0 12 2 2 4 -23 4 -25 0 -35 -2 -22 -4z"/>
<path d="M5523 1353 c15 -2 37 -2 50 0 12 2 0 4 -28 4 -27 0 -38 -2 -22 -4z"/>
<path d="M268 1343 c7 -3 16 -2 19 1 4 3 -2 6 -13 5 -11 0 -14 -3 -6 -6z"/>
<path d="M5665 1340 c19 -8 103 -14 94 -6 -2 2 -29 6 -59 9 -34 3 -47 2 -35
-3z"/>
<path d="M5830 1336 l-65 -11 50 -3 c32 -2 62 3 80 12 34 18 27 18 -65 2z"/>
<path d="M5978 1343 c7 -3 16 -2 19 1 4 3 -2 6 -13 5 -11 0 -14 -3 -6 -6z"/>
<path d="M1 1324 c0 -11 3 -14 6 -6 3 7 2 16 -1 19 -3 4 -6 -2 -5 -13z"/>
<path d="M678 1333 c7 -3 16 -2 19 1 4 3 -2 6 -13 5 -11 0 -14 -3 -6 -6z"/>
<path d="M6011 1336 c2 -2 20 -6 39 -10 25 -4 31 -3 20 4 -14 9 -69 15 -59 6z"/>
<path d="M6390 1324 c-64 -13 -90 -23 -90 -34 0 -4 24 -1 53 6 28 7 73 15 100
19 26 3 47 10 47 14 0 11 -46 9 -110 -5z"/>
<path d="M4738 1323 c12 -2 32 -2 45 0 12 2 2 4 -23 4 -25 0 -35 -2 -22 -4z"/>
<path d="M5048 1313 c7 -3 16 -2 19 1 4 3 -2 6 -13 5 -11 0 -14 -3 -6 -6z"/>
<path d="M6115 1310 c11 -5 36 -8 55 -8 32 0 33 1 10 8 -14 4 -38 8 -55 8 -25
1 -27 -1 -10 -8z"/>
<path d="M3603 1303 c9 -2 25 -2 35 0 9 3 1 5 -18 5 -19 0 -27 -2 -17 -5z"/>
<path d="M5373 1303 c20 -2 54 -2 75 0 20 2 3 4 -38 4 -41 0 -58 -2 -37 -4z"/>
<path d="M288 1293 c7 -3 16 -2 19 1 4 3 -2 6 -13 5 -11 0 -14 -3 -6 -6z"/>
<path d="M653 1290 c-34 -14 -28 -21 7 -9 17 6 30 13 30 15 0 6 -12 4 -37 -6z"/>
<path d="M3528 1293 c7 -3 16 -2 19 1 4 3 -2 6 -13 5 -11 0 -14 -3 -6 -6z"/>
<path d="M5563 1293 c15 -2 39 -2 55 0 15 2 2 4 -28 4 -30 0 -43 -2 -27 -4z"/>
<path d="M5885 1290 c-3 -5 -39 -11 -78 -11 l-72 -1 50 -9 c36 -6 63 -5 95 6
25 7 54 16 65 18 11 3 3 5 -17 6 -20 0 -40 -3 -43 -9z"/>
<path d="M6218 1293 c6 -2 18 -2 25 0 6 3 1 5 -13 5 -14 0 -19 -2 -12 -5z"/>
<path d="M238 1283 c7 -3 16 -2 19 1 4 3 -2 6 -13 5 -11 0 -14 -3 -6 -6z"/>
<path d="M4143 1283 c9 -2 23 -2 30 0 6 3 -1 5 -18 5 -16 0 -22 -2 -12 -5z"/>
<path d="M4258 1283 c12 -2 32 -2 45 0 12 2 2 4 -23 4 -25 0 -35 -2 -22 -4z"/>
<path d="M5688 1283 c6 -2 18 -2 25 0 6 3 1 5 -13 5 -14 0 -19 -2 -12 -5z"/>
<path d="M0 1267 c0 -8 7 -20 15 -27 12 -10 15 -10 15 3 0 8 -7 20 -15 27 -12
10 -15 10 -15 -3z"/>
<path d="M1978 1273 c7 -3 16 -2 19 1 4 3 -2 6 -13 5 -11 0 -14 -3 -6 -6z"/>
<path d="M6040 1276 c0 -2 35 -12 78 -21 42 -9 85 -19 95 -21 9 -3 17 -1 17 5
0 6 -14 11 -31 11 -17 0 -38 4 -47 9 -18 9 -112 23 -112 17z"/>
<path d="M6254 1265 c-10 -8 -14 -15 -8 -15 6 0 17 7 24 15 16 19 9 19 -16 0z"/>
<path d="M6380 1270 c-25 -3 -61 -14 -80 -23 -35 -17 -35 -17 -5 -12 17 3 69
11 118 17 48 6 87 15 87 19 0 10 -53 10 -120 -1z"/>
<path d="M4908 1263 c6 -2 18 -2 25 0 6 3 1 5 -13 5 -14 0 -19 -2 -12 -5z"/>
<path d="M5163 1253 c9 -2 23 -2 30 0 6 3 -1 5 -18 5 -16 0 -22 -2 -12 -5z"/>
<path d="M5358 1253 c6 -2 18 -2 25 0 6 3 1 5 -13 5 -14 0 -19 -2 -12 -5z"/>
<path d="M5473 1243 c15 -2 39 -2 55 0 15 2 2 4 -28 4 -30 0 -43 -2 -27 -4z"/>
<path d="M5599 1237 c5 -5 24 -7 42 -5 33 3 33 4 -8 8 -23 3 -39 2 -34 -3z"/>
<path d="M5895 1240 c-3 -5 -23 -10 -43 -11 -20 0 -46 -4 -57 -9 -41 -18 60
-9 110 10 40 15 45 19 23 19 -15 1 -30 -3 -33 -9z"/>
<path d="M628 1233 c7 -3 16 -2 19 1 4 3 -2 6 -13 5 -11 0 -14 -3 -6 -6z"/>
<path d="M3408 1233 c6 -2 18 -2 25 0 6 3 1 5 -13 5 -14 0 -19 -2 -12 -5z"/>
<path d="M5980 1230 c14 -4 41 -8 60 -9 19 -1 59 -10 88 -21 62 -24 95 -25
112 -5 8 9 9 15 2 15 -6 0 -14 -5 -17 -11 -8 -11 -56 -4 -95 16 -14 7 -59 15
-100 17 -42 3 -64 2 -50 -2z"/>
<path d="M57 1219 c7 -7 15 -10 18 -7 3 3 -2 9 -12 12 -14 6 -15 5 -6 -5z"/>
<path d="M580 1220 c-8 -5 -10 -10 -5 -10 6 0 17 5 25 10 8 5 11 10 5 10 -5 0
-17 -5 -25 -10z"/>
<path d="M5713 1223 c9 -2 23 -2 30 0 6 3 -1 5 -18 5 -16 0 -22 -2 -12 -5z"/>
<path d="M6353 1215 c-73 -13 -93 -20 -93 -34 0 -4 28 -2 63 5 34 8 88 16 120
20 31 4 57 11 57 15 0 12 -61 10 -147 -6z"/>
<path d="M355 1210 c-3 -6 1 -7 9 -4 18 7 21 14 7 14 -6 0 -13 -4 -16 -10z"/>
<path d="M0 1202 c0 -15 38 -44 51 -40 9 3 6 11 -9 26 -22 22 -42 29 -42 14z"/>
<path d="M513 1203 c9 -2 25 -2 35 0 9 3 1 5 -18 5 -19 0 -27 -2 -17 -5z"/>
<path d="M4888 1203 c6 -2 18 -2 25 0 6 3 1 5 -13 5 -14 0 -19 -2 -12 -5z"/>
<path d="M5068 1203 c18 -2 45 -2 60 0 15 2 0 4 -33 4 -33 0 -45 -2 -27 -4z"/>
<path d="M3488 1193 c6 -2 18 -2 25 0 6 3 1 5 -13 5 -14 0 -19 -2 -12 -5z"/>
<path d="M3673 1193 c9 -2 23 -2 30 0 6 3 -1 5 -18 5 -16 0 -22 -2 -12 -5z"/>
<path d="M5378 1193 c12 -2 32 -2 45 0 12 2 2 4 -23 4 -25 0 -35 -2 -22 -4z"/>
<path d="M590 1180 c-18 -12 -2 -12 25 0 13 6 15 9 5 9 -8 0 -22 -4 -30 -9z"/>
<path d="M3428 1183 c6 -2 18 -2 25 0 6 3 1 5 -13 5 -14 0 -19 -2 -12 -5z"/>
<path d="M5563 1183 c9 -2 25 -2 35 0 9 3 1 5 -18 5 -19 0 -27 -2 -17 -5z"/>
<path d="M5910 1183 c55 -8 71 -14 65 -23 -3 -6 0 -10 7 -10 7 0 49 -18 93
-39 44 -21 83 -37 87 -34 9 5 -117 73 -136 73 -7 0 -25 9 -39 20 -16 13 -39
20 -64 19 -25 -1 -29 -3 -13 -6z"/>
<path d="M6099 1160 c83 -39 100 -39 28 0 -31 17 -65 30 -74 30 -10 -1 11 -14
46 -30z"/>
<path d="M4218 1173 c6 -2 18 -2 25 0 6 3 1 5 -13 5 -14 0 -19 -2 -12 -5z"/>
<path d="M5648 1173 c7 -3 16 -2 19 1 4 3 -2 6 -13 5 -11 0 -14 -3 -6 -6z"/>
<path d="M6380 1165 c-80 -12 -148 -31 -139 -39 7 -7 259 39 259 47 0 9 -12 8
-120 -8z"/>
<path d="M540 1160 c-8 -5 -10 -10 -5 -10 6 0 17 5 25 10 8 5 11 10 5 10 -5 0
-17 -5 -25 -10z"/>
<path d="M5769 1158 c40 -5 74 -5 90 1 20 7 4 9 -64 9 l-90 0 64 -10z"/>
<path d="M1218 1153 c12 -2 30 -2 40 0 9 3 -1 5 -23 4 -22 0 -30 -2 -17 -4z"/>
<path d="M2538 1153 c7 -3 16 -2 19 1 4 3 -2 6 -13 5 -11 0 -14 -3 -6 -6z"/>
<path d="M4658 1153 c12 -2 30 -2 40 0 9 3 -1 5 -23 4 -22 0 -30 -2 -17 -4z"/>
<path d="M4728 1153 c7 -3 16 -2 19 1 4 3 -2 6 -13 5 -11 0 -14 -3 -6 -6z"/>
<path d="M6210 1140 c-14 -10 -21 -22 -17 -26 4 -4 17 2 29 14 28 28 20 36
-12 12z"/>
<path d="M90 1140 c8 -5 22 -9 30 -9 10 0 8 3 -5 9 -27 12 -43 12 -25 0z"/>
<path d="M3425 1140 c-42 -11 -1 -11 50 -1 34 7 35 9 10 9 -16 0 -43 -4 -60
-8z"/>
<path d="M5053 1143 c9 -2 23 -2 30 0 6 3 -1 5 -18 5 -16 0 -22 -2 -12 -5z"/>
<path d="M5113 1143 c9 -2 25 -2 35 0 9 3 1 5 -18 5 -19 0 -27 -2 -17 -5z"/>
<path d="M5208 1143 c17 -2 47 -2 65 0 17 2 3 4 -33 4 -36 0 -50 -2 -32 -4z"/>
<path d="M35 1106 c22 -19 41 -33 43 -31 10 9 -19 39 -49 51 l-34 14 40 -34z"/>
<path d="M603 1133 c9 -2 23 -2 30 0 6 3 -1 5 -18 5 -16 0 -22 -2 -12 -5z"/>
<path d="M1508 1133 c7 -3 16 -2 19 1 4 3 -2 6 -13 5 -11 0 -14 -3 -6 -6z"/>
<path d="M3658 1133 c7 -3 16 -2 19 1 4 3 -2 6 -13 5 -11 0 -14 -3 -6 -6z"/>
<path d="M5480 1131 c63 -5 144 -12 180 -15 46 -5 60 -4 49 3 -9 6 -90 12
-180 15 -145 4 -151 4 -49 -3z"/>
<path d="M5895 1130 c-3 -5 1 -10 9 -10 9 0 16 5 16 10 0 6 -4 10 -9 10 -6 0
-13 -4 -16 -10z"/>
<path d="M558 1123 c7 -3 16 -2 19 1 4 3 -2 6 -13 5 -11 0 -14 -3 -6 -6z"/>
<path d="M4058 1123 c6 -2 18 -2 25 0 6 3 1 5 -13 5 -14 0 -19 -2 -12 -5z"/>
<path d="M5965 1120 c-3 -5 16 -20 42 -33 27 -14 62 -32 78 -41 57 -30 59 -16
2 18 -84 51 -116 65 -122 56z"/>
<path d="M6358 1106 c-125 -21 -171 -36 -110 -36 17 0 52 4 79 10 26 5 76 15
111 22 34 7 62 16 62 20 0 4 -3 8 -7 7 -5 -1 -65 -11 -135 -23z"/>
<path d="M5740 1110 c20 -13 127 -13 135 0 4 6 -22 10 -72 10 -54 0 -73 -3
-63 -10z"/>
<path d="M498 1103 c7 -3 16 -2 19 1 4 3 -2 6 -13 5 -11 0 -14 -3 -6 -6z"/>
<path d="M2573 1103 c9 -2 23 -2 30 0 6 3 -1 5 -18 5 -16 0 -22 -2 -12 -5z"/>
<path d="M4748 1093 c7 -3 16 -2 19 1 4 3 -2 6 -13 5 -11 0 -14 -3 -6 -6z"/>
<path d="M4838 1093 c23 -2 61 -2 85 0 23 2 4 4 -43 4 -47 0 -66 -2 -42 -4z"/>
<path d="M5018 1093 c7 -3 16 -2 19 1 4 3 -2 6 -13 5 -11 0 -14 -3 -6 -6z"/>
<path d="M243 1083 c9 -2 25 -2 35 0 9 3 1 5 -18 5 -19 0 -27 -2 -17 -5z"/>
<path d="M3335 1075 c-33 -7 -49 -13 -35 -13 14 -1 52 5 85 12 33 8 49 14 35
14 -14 0 -52 -6 -85 -13z"/>
<path d="M5248 1083 c6 -2 18 -2 25 0 6 3 1 5 -13 5 -14 0 -19 -2 -12 -5z"/>
<path d="M5328 1083 c12 -2 32 -2 45 0 12 2 2 4 -23 4 -25 0 -35 -2 -22 -4z"/>
<path d="M5915 1077 c-49 -12 -182 -14 -340 -3 -66 5 -118 6 -115 3 3 -3 50
-8 105 -11 55 -4 137 -11 182 -17 60 -8 92 -8 116 0 19 7 45 14 57 16 13 3 28
9 34 15 5 5 8 9 6 9 -3 -1 -23 -6 -45 -12z"/>
<path d="M638 1073 c6 -2 18 -2 25 0 6 3 1 5 -13 5 -14 0 -19 -2 -12 -5z"/>
<path d="M6183 1068 c-13 -6 -23 -15 -23 -20 0 -14 16 -9 35 12 20 22 19 23
-12 8z"/>
<path d="M50 1030 c25 -22 54 -46 64 -52 17 -9 17 -7 -3 21 -12 17 -28 31 -35
31 -7 0 -26 9 -42 21 -16 11 -9 2 16 -21z"/>
<path d="M138 1063 c7 -3 16 -2 19 1 4 3 -2 6 -13 5 -11 0 -14 -3 -6 -6z"/>
<path d="M5980 1059 c1 -18 79 -68 125 -80 29 -8 40 -7 63 9 15 11 53 22 84
26 77 10 239 43 247 52 3 3 -7 4 -24 1 -16 -4 -82 -13 -146 -22 -65 -9 -134
-24 -157 -35 -52 -25 -60 -25 -102 3 -85 57 -90 60 -90 46z"/>
<path d="M463 1053 c9 -2 23 -2 30 0 6 3 -1 5 -18 5 -16 0 -22 -2 -12 -5z"/>
<path d="M953 1053 c15 -2 37 -2 50 0 12 2 0 4 -28 4 -27 0 -38 -2 -22 -4z"/>
<path d="M1043 1053 c9 -2 25 -2 35 0 9 3 1 5 -18 5 -19 0 -27 -2 -17 -5z"/>
<path d="M2878 1053 c7 -3 16 -2 19 1 4 3 -2 6 -13 5 -11 0 -14 -3 -6 -6z"/>
<path d="M288 1043 c6 -2 18 -2 25 0 6 3 1 5 -13 5 -14 0 -19 -2 -12 -5z"/>
<path d="M2498 1043 c6 -2 18 -2 25 0 6 3 1 5 -13 5 -14 0 -19 -2 -12 -5z"/>
<path d="M2548 1043 c7 -3 16 -2 19 1 4 3 -2 6 -13 5 -11 0 -14 -3 -6 -6z"/>
<path d="M4668 1043 c7 -3 16 -2 19 1 4 3 -2 6 -13 5 -11 0 -14 -3 -6 -6z"/>
<path d="M3403 1033 c9 -2 23 -2 30 0 6 3 -1 5 -18 5 -16 0 -22 -2 -12 -5z"/>
<path d="M4898 1033 c12 -2 32 -2 45 0 12 2 2 4 -23 4 -25 0 -35 -2 -22 -4z"/>
<path d="M5949 1030 c-9 -5 -50 -13 -90 -16 -93 -8 -125 -23 -51 -24 59 0 162
26 162 41 0 11 -1 11 -21 -1z"/>
<path d="M139 1011 c13 -12 31 -21 40 -21 14 0 6 6 -51 35 -7 4 -2 -3 11 -14z"/>
<path d="M5258 1023 c7 -3 16 -2 19 1 4 3 -2 6 -13 5 -11 0 -14 -3 -6 -6z"/>
<path d="M5343 1023 c26 -2 68 -2 95 0 26 2 4 3 -48 3 -52 0 -74 -1 -47 -3z"/>
<path d="M30 985 c19 -19 36 -35 39 -35 3 0 -10 16 -29 35 -19 19 -36 35 -39
35 -3 0 10 -16 29 -35z"/>
<path d="M460 1010 c-20 -6 -21 -8 -5 -8 11 0 29 3 40 8 25 11 -1 11 -35 0z"/>
<path d="M5528 1013 c17 -2 47 -2 65 0 17 2 3 4 -33 4 -36 0 -50 -2 -32 -4z"/>
<path d="M858 1003 c7 -3 16 -2 19 1 4 3 -2 6 -13 5 -11 0 -14 -3 -6 -6z"/>
<path d="M3213 1003 c15 -2 37 -2 50 0 12 2 0 4 -28 4 -27 0 -38 -2 -22 -4z"/>
<path d="M5668 1003 c12 -2 32 -2 45 0 12 2 2 4 -23 4 -25 0 -35 -2 -22 -4z"/>
<path d="M5980 996 c0 -30 -61 -41 -226 -40 -89 1 -174 4 -190 8 -18 5 -25 4
-19 -2 6 -5 76 -14 156 -20 117 -8 159 -7 204 3 32 8 62 18 68 24 7 7 24 2 53
-15 60 -35 78 -25 21 12 -26 16 -47 32 -47 37 0 4 -4 7 -10 7 -5 0 -10 -6 -10
-14z"/>
<path d="M6307 990 c-113 -17 -136 -24 -125 -35 5 -5 310 43 317 51 9 8 -77 1
-192 -16z"/>
<path d="M4408 993 c12 -2 30 -2 40 0 9 3 -1 5 -23 4 -22 0 -30 -2 -17 -4z"/>
<path d="M1258 983 c7 -3 16 -2 19 1 4 3 -2 6 -13 5 -11 0 -14 -3 -6 -6z"/>
<path d="M2223 983 c9 -2 23 -2 30 0 6 3 -1 5 -18 5 -16 0 -22 -2 -12 -5z"/>
<path d="M2308 983 c12 -2 30 -2 40 0 9 3 -1 5 -23 4 -22 0 -30 -2 -17 -4z"/>
<path d="M495 970 c-14 -7 -8 -8 20 -3 22 3 42 7 44 9 9 8 -45 2 -64 -6z"/>
<path d="M578 973 c6 -2 18 -2 25 0 6 3 1 5 -13 5 -14 0 -19 -2 -12 -5z"/>
<path d="M630 969 c0 -5 9 -9 20 -9 11 0 20 2 20 4 0 2 -9 6 -20 9 -11 3 -20
1 -20 -4z"/>
<path d="M3338 973 c7 -3 16 -2 19 1 4 3 -2 6 -13 5 -11 0 -14 -3 -6 -6z"/>
<path d="M5023 973 c43 -2 110 -2 150 0 40 1 5 3 -78 3 -82 0 -115 -2 -72 -3z"/>
<path d="M5353 968 c7 -4 48 -7 92 -6 90 1 76 5 -32 10 -40 2 -67 0 -60 -4z"/>
<path d="M743 953 c9 -2 25 -2 35 0 9 3 1 5 -18 5 -19 0 -27 -2 -17 -5z"/>
<path d="M1668 953 c7 -3 16 -2 19 1 4 3 -2 6 -13 5 -11 0 -14 -3 -6 -6z"/>
<path d="M6430 949 c-30 -5 -98 -13 -150 -19 -75 -9 -105 -17 -140 -40 -56
-35 -105 -46 -126 -29 -11 9 -21 9 -39 1 -14 -6 -55 -14 -92 -18 -38 -4 -75
-11 -83 -16 -21 -13 138 0 163 13 13 8 27 7 47 -1 37 -16 81 -5 124 29 25 20
51 30 93 35 121 13 273 40 273 48 0 4 -3 7 -7 7 -5 -1 -33 -5 -63 -10z"/>
<path d="M908 943 c7 -3 16 -2 19 1 4 3 -2 6 -13 5 -11 0 -14 -3 -6 -6z"/>
<path d="M1848 943 c7 -3 16 -2 19 1 4 3 -2 6 -13 5 -11 0 -14 -3 -6 -6z"/>
<path d="M3098 943 c7 -3 16 -2 19 1 4 3 -2 6 -13 5 -11 0 -14 -3 -6 -6z"/>
<path d="M4223 943 c9 -2 23 -2 30 0 6 3 -1 5 -18 5 -16 0 -22 -2 -12 -5z"/>
<path d="M6123 934 c-29 -13 -45 -34 -25 -34 10 0 72 39 72 45 0 8 -11 5 -47
-11z"/>
<path d="M119 907 c24 -26 32 -42 28 -57 -4 -14 1 -30 14 -44 12 -12 18 -29
15 -40 -5 -20 27 -70 38 -59 3 4 -1 17 -10 31 -8 13 -13 26 -10 29 3 3 -2 19
-10 36 -9 16 -22 51 -30 78 -8 27 -19 49 -24 49 -4 0 -17 3 -27 7 -12 4 -6 -7
16 -30z"/>
<path d="M1133 933 c9 -2 23 -2 30 0 6 3 -1 5 -18 5 -16 0 -22 -2 -12 -5z"/>
<path d="M5986 931 c-7 -10 54 -51 75 -51 8 0 4 9 -11 21 -39 31 -58 40 -64
30z"/>
<path d="M1258 923 c7 -3 16 -2 19 1 4 3 -2 6 -13 5 -11 0 -14 -3 -6 -6z"/>
<path d="M4758 923 c18 -2 45 -2 60 0 15 2 0 4 -33 4 -33 0 -45 -2 -27 -4z"/>
<path d="M4908 923 c7 -3 16 -2 19 1 4 3 -2 6 -13 5 -11 0 -14 -3 -6 -6z"/>
<path d="M0 912 c0 -12 19 -26 26 -19 2 2 -2 10 -11 17 -9 8 -15 8 -15 2z"/>
<path d="M618 913 c6 -2 18 -2 25 0 6 3 1 5 -13 5 -14 0 -19 -2 -12 -5z"/>
<path d="M5008 913 c6 -2 18 -2 25 0 6 3 1 5 -13 5 -14 0 -19 -2 -12 -5z"/>
<path d="M5068 913 c7 -3 16 -2 19 1 4 3 -2 6 -13 5 -11 0 -14 -3 -6 -6z"/>
<path d="M5178 913 c34 -2 90 -2 125 0 34 2 6 3 -63 3 -69 0 -97 -1 -62 -3z"/>
<path d="M5420 910 c25 -4 126 -13 226 -20 176 -12 285 -8 315 11 9 6 1 8 -26
5 -122 -15 -156 -16 -277 -6 -221 17 -290 20 -238 10z"/>
<path d="M3248 903 c6 -2 18 -2 25 0 6 3 1 5 -13 5 -14 0 -19 -2 -12 -5z"/>
<path d="M3858 903 c12 -2 32 -2 45 0 12 2 2 4 -23 4 -25 0 -35 -2 -22 -4z"/>
<path d="M182 884 c10 -10 20 -15 24 -12 3 4 -5 12 -18 18 -22 12 -22 12 -6
-6z"/>
<path d="M3208 893 c7 -3 16 -2 19 1 4 3 -2 6 -13 5 -11 0 -14 -3 -6 -6z"/>
<path d="M4008 893 c7 -3 16 -2 19 1 4 3 -2 6 -13 5 -11 0 -14 -3 -6 -6z"/>
<path d="M4068 893 c6 -2 18 -2 25 0 6 3 1 5 -13 5 -14 0 -19 -2 -12 -5z"/>
<path d="M4133 893 c9 -2 23 -2 30 0 6 3 -1 5 -18 5 -16 0 -22 -2 -12 -5z"/>
<path d="M6425 893 c-16 -2 -84 -11 -150 -19 -66 -8 -124 -19 -129 -24 -14
-14 14 -13 120 5 49 7 122 19 162 25 98 16 96 26 -3 13z"/>
<path d="M4543 873 c9 -2 25 -2 35 0 9 3 1 5 -18 5 -19 0 -27 -2 -17 -5z"/>
<path d="M4648 873 c6 -2 18 -2 25 0 6 3 1 5 -13 5 -14 0 -19 -2 -12 -5z"/>
<path d="M4698 873 c7 -3 16 -2 19 1 4 3 -2 6 -13 5 -11 0 -14 -3 -6 -6z"/>
<path d="M3288 863 c7 -3 16 -2 19 1 4 3 -2 6 -13 5 -11 0 -14 -3 -6 -6z"/>
<path d="M4818 863 c12 -2 32 -2 45 0 12 2 2 4 -23 4 -25 0 -35 -2 -22 -4z"/>
<path d="M678 853 c7 -3 16 -2 19 1 4 3 -2 6 -13 5 -11 0 -14 -3 -6 -6z"/>
<path d="M5245 853 c122 -7 245 -7 245 0 0 4 -66 6 -147 5 -82 -1 -125 -3 -98
-5z"/>
<path d="M858 843 c7 -3 16 -2 19 1 4 3 -2 6 -13 5 -11 0 -14 -3 -6 -6z"/>
<path d="M3943 843 c9 -2 23 -2 30 0 6 3 -1 5 -18 5 -16 0 -22 -2 -12 -5z"/>
<path d="M5537 843 c18 -2 50 -2 70 0 21 2 7 4 -32 4 -38 0 -55 -2 -38 -4z"/>
<path d="M5656 839 c3 -5 33 -9 66 -9 34 0 59 2 57 4 -10 8 -129 13 -123 5z"/>
<path d="M6415 835 c-38 -7 -114 -16 -167 -20 -59 -4 -104 -12 -115 -21 -16
-13 -15 -14 17 -10 19 3 106 15 193 28 86 12 157 25 157 30 0 9 4 10 -85 -7z"/>
<path d="M1138 823 c6 -2 18 -2 25 0 6 3 1 5 -13 5 -14 0 -19 -2 -12 -5z"/>
<path d="M4438 823 c7 -3 16 -2 19 1 4 3 -2 6 -13 5 -11 0 -14 -3 -6 -6z"/>
<path d="M80 812 c0 -4 10 -13 23 -21 22 -14 22 -14 3 8 -20 22 -26 25 -26 13z"/>
<path d="M568 813 c6 -2 18 -2 25 0 6 3 1 5 -13 5 -14 0 -19 -2 -12 -5z"/>
<path d="M2138 813 c6 -2 18 -2 25 0 6 3 1 5 -13 5 -14 0 -19 -2 -12 -5z"/>
<path d="M2188 813 c6 -2 18 -2 25 0 6 3 1 5 -13 5 -14 0 -19 -2 -12 -5z"/>
<path d="M3278 813 c6 -2 18 -2 25 0 6 3 1 5 -13 5 -14 0 -19 -2 -12 -5z"/>
<path d="M4678 813 c7 -3 16 -2 19 1 4 3 -2 6 -13 5 -11 0 -14 -3 -6 -6z"/>
<path d="M4738 813 c6 -2 18 -2 25 0 6 3 1 5 -13 5 -14 0 -19 -2 -12 -5z"/>
<path d="M6090 809 c-14 -6 -43 -9 -65 -8 -22 2 -56 -1 -75 -5 -19 -4 -82 -11
-140 -15 l-105 -8 97 -2 c53 0 120 4 148 11 42 10 53 9 60 -2 7 -11 16 -11 48
-2 22 7 45 19 52 27 14 17 14 17 -20 4z"/>
<path d="M643 803 c15 -2 37 -2 50 0 12 2 0 4 -28 4 -27 0 -38 -2 -22 -4z"/>
<path d="M1378 803 c7 -3 16 -2 19 1 4 3 -2 6 -13 5 -11 0 -14 -3 -6 -6z"/>
<path d="M4938 803 c7 -3 16 -2 19 1 4 3 -2 6 -13 5 -11 0 -14 -3 -6 -6z"/>
<path d="M4983 803 c9 -2 25 -2 35 0 9 3 1 5 -18 5 -19 0 -27 -2 -17 -5z"/>
<path d="M5068 803 c17 -2 47 -2 65 0 17 2 3 4 -33 4 -36 0 -50 -2 -32 -4z"/>
<path d="M5178 803 c6 -2 18 -2 25 0 6 3 1 5 -13 5 -14 0 -19 -2 -12 -5z"/>
<path d="M5288 803 c6 -2 18 -2 25 0 6 3 1 5 -13 5 -14 0 -19 -2 -12 -5z"/>
<path d="M5353 798 c7 -4 50 -7 97 -6 96 1 82 6 -32 10 -42 2 -71 0 -65 -4z"/>
<path d="M778 793 c12 -2 32 -2 45 0 12 2 2 4 -23 4 -25 0 -35 -2 -22 -4z"/>
<path d="M3853 793 c9 -2 23 -2 30 0 6 3 -1 5 -18 5 -16 0 -22 -2 -12 -5z"/>
<path d="M893 783 c9 -2 23 -2 30 0 6 3 -1 5 -18 5 -16 0 -22 -2 -12 -5z"/>
<path d="M1643 783 c9 -2 23 -2 30 0 6 3 -1 5 -18 5 -16 0 -22 -2 -12 -5z"/>
<path d="M5618 783 c12 -2 32 -2 45 0 12 2 2 4 -23 4 -25 0 -35 -2 -22 -4z"/>
<path d="M6410 779 c-19 -4 -89 -13 -155 -20 -129 -12 -168 -20 -123 -27 30
-4 295 32 343 47 l30 9 -30 0 c-16 0 -46 -4 -65 -9z"/>
<path d="M1078 773 c6 -2 18 -2 25 0 6 3 1 5 -13 5 -14 0 -19 -2 -12 -5z"/>
<path d="M1818 773 c7 -3 16 -2 19 1 4 3 -2 6 -13 5 -11 0 -14 -3 -6 -6z"/>
<path d="M4258 773 c6 -2 18 -2 25 0 6 3 1 5 -13 5 -14 0 -19 -2 -12 -5z"/>
<path d="M543 763 c9 -2 25 -2 35 0 9 3 1 5 -18 5 -19 0 -27 -2 -17 -5z"/>
<path d="M1200 760 c0 -6 7 -10 15 -10 8 0 15 2 15 4 0 2 -7 6 -15 10 -8 3
-15 1 -15 -4z"/>
<path d="M1933 763 c9 -2 23 -2 30 0 6 3 -1 5 -18 5 -16 0 -22 -2 -12 -5z"/>
<path d="M2463 763 c9 -2 25 -2 35 0 9 3 1 5 -18 5 -19 0 -27 -2 -17 -5z"/>
<path d="M4433 763 c20 -2 54 -2 75 0 20 2 3 4 -38 4 -41 0 -58 -2 -37 -4z"/>
<path d="M623 753 c9 -2 25 -2 35 0 9 3 1 5 -18 5 -19 0 -27 -2 -17 -5z"/>
<path d="M698 753 c7 -3 16 -2 19 1 4 3 -2 6 -13 5 -11 0 -14 -3 -6 -6z"/>
<path d="M3248 753 c6 -2 18 -2 25 0 6 3 1 5 -13 5 -14 0 -19 -2 -12 -5z"/>
<path d="M4678 753 c6 -2 18 -2 25 0 6 3 1 5 -13 5 -14 0 -19 -2 -12 -5z"/>
<path d="M4763 753 c15 -2 39 -2 55 0 15 2 2 4 -28 4 -30 0 -43 -2 -27 -4z"/>
<path d="M4930 750 c0 -5 5 -10 10 -10 6 0 10 5 10 10 0 6 -4 10 -10 10 -5 0
-10 -4 -10 -10z"/>
<path d="M6070 750 c-14 -4 -37 -11 -52 -14 -16 -4 -28 -11 -28 -17 0 -16 56
-3 94 21 33 21 28 24 -14 10z"/>
<path d="M798 743 c7 -3 16 -2 19 1 4 3 -2 6 -13 5 -11 0 -14 -3 -6 -6z"/>
<path d="M4898 743 c7 -3 16 -2 19 1 4 3 -2 6 -13 5 -11 0 -14 -3 -6 -6z"/>
<path d="M4968 743 c7 -3 16 -2 19 1 4 3 -2 6 -13 5 -11 0 -14 -3 -6 -6z"/>
<path d="M5078 743 c45 -2 119 -2 165 0 45 1 8 3 -83 3 -91 0 -128 -2 -82 -3z"/>
<path d="M5371 746 c2 -2 60 -6 129 -9 82 -3 104 -2 65 3 -63 8 -201 13 -194
6z"/>
<path d="M6435 734 c-55 -16 -190 -33 -305 -39 -86 -5 -132 -16 -138 -33 -5
-17 13 -15 58 8 25 13 40 16 40 9 0 -8 20 -10 68 -5 128 12 342 54 342 68 0
10 -1 9 -65 -8z"/>
<path d="M1553 733 c20 -2 54 -2 75 0 20 2 3 4 -38 4 -41 0 -58 -2 -37 -4z"/>
<path d="M3888 733 c12 -2 30 -2 40 0 9 3 -1 5 -23 4 -22 0 -30 -2 -17 -4z"/>
<path d="M5860 730 c-84 -5 -90 -6 -57 -14 46 -10 145 -2 160 13 6 6 7 10 2 9
-6 -1 -53 -4 -105 -8z"/>
<path d="M433 723 c15 -2 39 -2 55 0 15 2 2 4 -28 4 -30 0 -43 -2 -27 -4z"/>
<path d="M5641 726 c10 -8 119 -14 119 -5 0 5 -28 9 -62 9 -34 0 -59 -2 -57
-4z"/>
<path d="M124 711 c7 -11 46 -35 46 -28 0 3 -12 12 -26 22 -15 9 -23 12 -20 6z"/>
<path d="M528 713 c6 -2 18 -2 25 0 6 3 1 5 -13 5 -14 0 -19 -2 -12 -5z"/>
<path d="M1098 713 c6 -2 18 -2 25 0 6 3 1 5 -13 5 -14 0 -19 -2 -12 -5z"/>
<path d="M4358 713 c12 -2 30 -2 40 0 9 3 -1 5 -23 4 -22 0 -30 -2 -17 -4z"/>
<path d="M237 699 c7 -7 15 -10 18 -7 3 3 -2 9 -12 12 -14 6 -15 5 -6 -5z"/>
<path d="M648 703 c7 -3 16 -2 19 1 4 3 -2 6 -13 5 -11 0 -14 -3 -6 -6z"/>
<path d="M698 703 c7 -3 16 -2 19 1 4 3 -2 6 -13 5 -11 0 -14 -3 -6 -6z"/>
<path d="M1963 703 c9 -2 23 -2 30 0 6 3 -1 5 -18 5 -16 0 -22 -2 -12 -5z"/>
<path d="M3358 703 c7 -3 16 -2 19 1 4 3 -2 6 -13 5 -11 0 -14 -3 -6 -6z"/>
<path d="M4655 700 c11 -5 27 -9 35 -9 9 0 8 4 -5 9 -11 5 -27 9 -35 9 -9 0
-8 -4 5 -9z"/>
<path d="M845 690 c17 -4 44 -8 60 -8 l30 0 -30 8 c-16 4 -43 8 -60 8 l-30 0
30 -8z"/>
<path d="M4823 693 c15 -2 39 -2 55 0 15 2 2 4 -28 4 -30 0 -43 -2 -27 -4z"/>
<path d="M5028 683 c6 -2 18 -2 25 0 6 3 1 5 -13 5 -14 0 -19 -2 -12 -5z"/>
<path d="M5188 683 c12 -2 32 -2 45 0 12 2 2 4 -23 4 -25 0 -35 -2 -22 -4z"/>
<path d="M5328 683 c12 -2 30 -2 40 0 9 3 -1 5 -23 4 -22 0 -30 -2 -17 -4z"/>
<path d="M5398 683 c6 -2 18 -2 25 0 6 3 1 5 -13 5 -14 0 -19 -2 -12 -5z"/>
<path d="M5441 686 c2 -2 47 -6 99 -9 65 -3 82 -3 55 3 -39 9 -162 14 -154 6z"/>
<path d="M5940 681 c-14 -4 -81 -9 -150 -10 -68 -1 -126 -4 -129 -7 -2 -2 63
-4 146 -4 122 0 153 3 163 15 14 16 8 17 -30 6z"/>
<path d="M6385 670 c-38 -9 -123 -20 -189 -24 -122 -6 -164 -16 -111 -26 55
-10 390 42 412 64 11 11 -41 5 -112 -14z"/>
<path d="M207 674 c-8 -14 8 -37 22 -33 8 3 8 10 -2 23 -8 11 -17 15 -20 10z"/>
<path d="M448 673 c12 -2 32 -2 45 0 12 2 2 4 -23 4 -25 0 -35 -2 -22 -4z"/>
<path d="M553 663 c15 -2 37 -2 50 0 12 2 0 4 -28 4 -27 0 -38 -2 -22 -4z"/>
<path d="M705 661 c11 -5 45 -11 75 -14 30 -3 46 -2 35 2 -11 5 -45 11 -75 14
-30 3 -46 2 -35 -2z"/>
<path d="M1073 663 c9 -2 23 -2 30 0 6 3 -1 5 -18 5 -16 0 -22 -2 -12 -5z"/>
<path d="M3098 663 c7 -3 16 -2 19 1 4 3 -2 6 -13 5 -11 0 -14 -3 -6 -6z"/>
<path d="M4378 653 c7 -3 16 -2 19 1 4 3 -2 6 -13 5 -11 0 -14 -3 -6 -6z"/>
<path d="M2143 643 c9 -2 25 -2 35 0 9 3 1 5 -18 5 -19 0 -27 -2 -17 -5z"/>
<path d="M3208 643 c7 -3 16 -2 19 1 4 3 -2 6 -13 5 -11 0 -14 -3 -6 -6z"/>
<path d="M4608 643 c23 -2 59 -2 80 0 20 2 1 4 -43 4 -44 0 -61 -2 -37 -4z"/>
<path d="M438 633 c7 -3 16 -2 19 1 4 3 -2 6 -13 5 -11 0 -14 -3 -6 -6z"/>
<path d="M4873 633 c9 -2 23 -2 30 0 6 3 -1 5 -18 5 -16 0 -22 -2 -12 -5z"/>
<path d="M5018 633 c17 -2 47 -2 65 0 17 2 3 4 -33 4 -36 0 -50 -2 -32 -4z"/>
<path d="M5133 633 c9 -2 23 -2 30 0 6 3 -1 5 -18 5 -16 0 -22 -2 -12 -5z"/>
<path d="M5253 633 c15 -2 37 -2 50 0 12 2 0 4 -28 4 -27 0 -38 -2 -22 -4z"/>
<path d="M5385 629 c-22 -5 -13 -6 31 -7 34 0 67 4 75 9 16 11 -56 9 -106 -2z"/>
<path d="M6465 633 c-11 -2 -47 -10 -80 -18 -33 -8 -94 -17 -135 -19 -41 -3
-108 -8 -148 -11 -73 -5 -112 -17 -112 -35 0 -12 13 -13 26 -1 5 5 66 14 136
19 132 11 348 51 348 64 0 8 -2 8 -35 1z"/>
<path d="M523 623 c15 -2 37 -2 50 0 12 2 0 4 -28 4 -27 0 -38 -2 -22 -4z"/>
<path d="M1528 623 c6 -2 18 -2 25 0 6 3 1 5 -13 5 -14 0 -19 -2 -12 -5z"/>
<path d="M5560 619 c25 -4 61 -7 80 -7 32 0 32 1 -10 9 -25 4 -61 7 -80 7 -32
0 -32 -1 10 -9z"/>
<path d="M5890 619 c-41 -4 -104 -6 -140 -4 -60 4 -62 4 -25 -6 54 -14 230 -8
247 9 6 6 8 11 3 11 -6 -1 -44 -6 -85 -10z"/>
<path d="M6013 620 c-13 -5 -23 -14 -23 -19 0 -13 37 -2 51 15 13 16 4 17 -28
4z"/>
<path d="M718 613 c6 -2 18 -2 25 0 6 3 1 5 -13 5 -14 0 -19 -2 -12 -5z"/>
<path d="M1048 613 c7 -3 16 -2 19 1 4 3 -2 6 -13 5 -11 0 -14 -3 -6 -6z"/>
<path d="M4063 613 c9 -2 23 -2 30 0 6 3 -1 5 -18 5 -16 0 -22 -2 -12 -5z"/>
<path d="M785 600 c19 -8 73 -14 64 -6 -2 2 -22 6 -44 9 -28 5 -34 4 -20 -3z"/>
<path d="M3043 603 c9 -2 25 -2 35 0 9 3 1 5 -18 5 -19 0 -27 -2 -17 -5z"/>
<path d="M4178 603 c12 -2 30 -2 40 0 9 3 -1 5 -23 4 -22 0 -30 -2 -17 -4z"/>
<path d="M20 590 c8 -5 20 -10 25 -10 6 0 3 5 -5 10 -8 5 -19 10 -25 10 -5 0
-3 -5 5 -10z"/>
<path d="M227 594 c-8 -8 37 -44 55 -44 7 0 4 6 -7 12 -30 16 -31 18 -15 28
12 8 11 10 -6 10 -11 0 -24 -3 -27 -6z"/>
<path d="M430 589 c0 -5 35 -9 78 -8 89 1 86 5 -10 12 -38 3 -68 1 -68 -4z"/>
<path d="M1168 593 c6 -2 18 -2 25 0 6 3 1 5 -13 5 -14 0 -19 -2 -12 -5z"/>
<path d="M2258 593 c12 -2 30 -2 40 0 9 3 -1 5 -23 4 -22 0 -30 -2 -17 -4z"/>
<path d="M2338 593 c12 -2 32 -2 45 0 12 2 2 4 -23 4 -25 0 -35 -2 -22 -4z"/>
<path d="M3218 593 c12 -2 32 -2 45 0 12 2 2 4 -23 4 -25 0 -35 -2 -22 -4z"/>
<path d="M3348 593 c7 -3 16 -2 19 1 4 3 -2 6 -13 5 -11 0 -14 -3 -6 -6z"/>
<path d="M4413 593 c9 -2 23 -2 30 0 6 3 -1 5 -18 5 -16 0 -22 -2 -12 -5z"/>
<path d="M1288 583 c12 -2 30 -2 40 0 9 3 -1 5 -23 4 -22 0 -30 -2 -17 -4z"/>
<path d="M3120 575 c-19 -7 -45 -14 -57 -14 -12 -1 -24 -5 -27 -10 -6 -10 42
0 114 23 25 8 36 15 25 15 -11 0 -36 -7 -55 -14z"/>
<path d="M3528 583 c7 -3 16 -2 19 1 4 3 -2 6 -13 5 -11 0 -14 -3 -6 -6z"/>
<path d="M4693 583 c15 -2 37 -2 50 0 12 2 0 4 -28 4 -27 0 -38 -2 -22 -4z"/>
<path d="M4920 570 c0 -10 -6 -25 -14 -33 -11 -10 -12 -17 -4 -25 21 -21 0
-42 -44 -44 l-43 -1 45 -6 c31 -4 45 -11 45 -21 0 -12 -20 -16 -95 -20 l-95
-6 90 -4 c82 -5 90 -7 90 -25 0 -19 -8 -20 -125 -25 l-125 -6 112 -2 c120 -2
143 -7 143 -28 0 -20 -39 -27 -124 -22 -41 2 -69 0 -63 -4 7 -4 49 -8 94 -8
86 0 111 -12 77 -37 -15 -11 -16 -15 -5 -22 25 -16 4 -41 -36 -42 l-38 -2 40
-6 c31 -5 40 -10 40 -26 0 -19 -9 -20 -115 -26 l-115 -5 111 -2 c88 -2 114 -5
125 -18 10 -13 10 -17 -2 -25 -16 -10 -6 -11 526 -14 335 -2 397 0 437 13 43
15 49 15 80 0 l33 -17 -49 0 c-30 -1 -61 -9 -81 -21 -17 -11 -63 -24 -101 -29
l-69 -8 53 -2 c29 0 69 6 89 14 39 16 96 19 128 5 15 -6 6 -9 -35 -11 -55 -2
-55 -3 -10 -6 137 -13 610 64 610 99 0 9 -32 3 -95 -19 -99 -34 -335 -57 -350
-33 -7 12 7 15 169 35 71 9 137 20 145 24 9 5 42 14 74 21 31 7 57 17 57 22 0
5 -10 6 -22 2 -145 -46 -379 -76 -412 -51 -16 12 -5 15 100 26 118 13 287 50
321 70 29 17 -2 13 -75 -9 -116 -34 -338 -52 -372 -30 -13 9 -13 10 0 10 21 1
223 28 292 39 74 12 176 42 161 48 -7 2 -50 -5 -95 -16 -84 -21 -128 -27 -272
-36 -79 -5 -126 1 -126 15 0 4 46 10 102 14 171 12 398 56 398 78 0 6 -8 7
-17 3 -10 -4 -72 -18 -138 -32 -101 -20 -143 -24 -265 -22 -117 3 -157 -1
-210 -16 -62 -17 -77 -18 -263 -5 -108 8 -197 17 -197 22 0 4 0 11 0 16 0 4
37 9 82 12 l83 5 -83 9 c-68 7 -82 12 -80 25 3 13 17 16 70 16 36 0 64 3 61 8
-2 4 -31 7 -63 7 -38 0 -60 4 -63 13 -9 26 4 34 50 29 33 -3 44 -2 39 7 -4 6
-24 11 -45 11 -42 0 -52 6 -44 26 4 10 25 14 77 15 l71 2 -73 9 c-60 8 -72 13
-70 27 2 11 14 16 38 17 35 2 168 -11 245 -22 22 -4 36 -3 32 2 -4 5 -76 15
-160 24 -121 12 -152 18 -152 30 0 17 -2 17 331 5 122 -5 198 -4 209 3 13 6
-34 9 -151 9 -220 0 -854 12 -876 17 -12 3 -18 -2 -18 -14z m281 -107 c2 -30
-2 -126 -7 -156 -3 -18 -1 -26 6 -22 5 3 10 12 10 19 0 8 7 19 15 26 8 7 12
16 10 21 -5 7 44 39 60 39 9 0 5 -18 -8 -32 -24 -25 -57 -71 -57 -79 0 -5 12
-9 28 -9 15 0 34 -4 42 -10 22 -14 -12 -24 -55 -17 -33 5 -47 -5 -25 -18 6 -3
10 -14 10 -23 -1 -12 -9 -8 -29 16 -26 31 -29 32 -34 13 -3 -12 -12 -24 -21
-27 -28 -11 -30 4 -5 25 13 11 19 20 14 21 -6 0 -16 -5 -22 -11 -11 -11 -83
-2 -83 11 0 10 37 20 78 20 17 0 32 5 32 10 0 9 -13 14 -31 12 -4 -1 -10 10
-13 23 -4 14 -14 25 -22 25 -13 0 -14 3 -5 13 8 10 7 17 -1 25 -6 6 -9 15 -5
18 8 9 47 -25 47 -40 0 -6 8 -22 17 -35 16 -23 17 -23 24 -5 3 10 2 24 -3 31
-5 7 -6 18 -2 25 5 7 9 24 10 38 3 61 5 70 14 70 6 0 11 -8 11 -17z m119 -163
c0 -5 -10 -10 -22 -10 -19 0 -20 2 -8 10 19 13 30 13 30 0z m40 0 c0 -5 -5
-10 -11 -10 -5 0 -7 5 -4 10 3 6 8 10 11 10 2 0 4 -4 4 -10z m343 -77 c88 -4
144 -2 180 6 36 9 59 10 77 2 l25 -10 -25 -1 c-35 -1 -70 -11 -70 -20 0 -4 14
-10 31 -14 36 -7 30 -26 -10 -26 -15 0 -31 -4 -37 -10 -24 -24 -122 -31 -271
-19 -81 6 -160 11 -175 10 -22 -1 -28 3 -28 20 0 21 0 21 178 13 194 -9 267
-8 290 5 9 5 -24 6 -75 4 -80 -5 -382 12 -392 22 -2 2 -1 12 3 21 6 15 17 16
89 10 45 -3 140 -9 210 -13z m-503 -49 c0 -8 -6 -11 -15 -8 -8 4 -15 15 -15
26 0 17 3 18 15 8 8 -7 15 -19 15 -26z m717 -40 c31 -8 19 -24 -18 -24 -17 0
-37 -6 -45 -14 -8 -8 -36 -18 -62 -22 -45 -7 -380 10 -390 20 -2 3 -2 12 1 20
6 16 4 16 267 1 112 -6 141 -5 170 8 41 18 47 19 77 11z m-567 -24 c0 -5 -2
-10 -4 -10 -3 0 -8 5 -11 10 -3 6 -1 10 4 10 6 0 11 -4 11 -10z"/>
<path d="M6385 564 c-60 -12 -164 -26 -230 -29 -117 -6 -175 -18 -175 -36 0
-12 17 -11 25 1 3 6 51 10 108 10 65 0 133 8 187 20 47 11 111 25 143 31 31 6
57 15 57 20 0 5 -1 8 -2 8 -2 -1 -52 -12 -113 -25z"/>
<path d="M638 573 c7 -3 16 -2 19 1 4 3 -2 6 -13 5 -11 0 -14 -3 -6 -6z"/>
<path d="M968 573 c6 -2 18 -2 25 0 6 3 1 5 -13 5 -14 0 -19 -2 -12 -5z"/>
<path d="M1448 573 c17 -2 47 -2 65 0 17 2 3 4 -33 4 -36 0 -50 -2 -32 -4z"/>
<path d="M3698 573 c12 -2 30 -2 40 0 9 3 -1 5 -23 4 -22 0 -30 -2 -17 -4z"/>
<path d="M160 566 c0 -6 75 -56 85 -56 4 0 -11 14 -33 30 -40 28 -52 35 -52
26z"/>
<path d="M688 563 c7 -3 16 -2 19 1 4 3 -2 6 -13 5 -11 0 -14 -3 -6 -6z"/>
<path d="M1583 563 c9 -2 23 -2 30 0 6 3 -1 5 -18 5 -16 0 -22 -2 -12 -5z"/>
<path d="M3863 563 c15 -2 37 -2 50 0 12 2 0 4 -28 4 -27 0 -38 -2 -22 -4z"/>
<path d="M3953 563 c9 -2 25 -2 35 0 9 3 1 5 -18 5 -19 0 -27 -2 -17 -5z"/>
<path d="M425 550 c3 -6 20 -10 37 -10 38 0 34 5 -10 13 -21 4 -31 3 -27 -3z"/>
<path d="M1068 553 c6 -2 18 -2 25 0 6 3 1 5 -13 5 -14 0 -19 -2 -12 -5z"/>
<path d="M870 540 c8 -5 20 -10 25 -10 6 0 3 5 -5 10 -8 5 -19 10 -25 10 -5 0
-3 -5 5 -10z"/>
<path d="M3293 543 c9 -2 23 -2 30 0 6 3 -1 5 -18 5 -16 0 -22 -2 -12 -5z"/>
<path d="M58 533 c6 -2 18 -2 25 0 6 3 1 5 -13 5 -14 0 -19 -2 -12 -5z"/>
<path d="M573 533 c9 -2 23 -2 30 0 6 3 -1 5 -18 5 -16 0 -22 -2 -12 -5z"/>
<path d="M3158 533 c6 -2 18 -2 25 0 6 3 1 5 -13 5 -14 0 -19 -2 -12 -5z"/>
<path d="M4528 533 c6 -2 18 -2 25 0 6 3 1 5 -13 5 -14 0 -19 -2 -12 -5z"/>
<path d="M621 526 c2 -2 27 -6 54 -9 34 -4 42 -3 25 3 -25 8 -87 13 -79 6z"/>
<path d="M3563 523 c9 -2 23 -2 30 0 6 3 -1 5 -18 5 -16 0 -22 -2 -12 -5z"/>
<path d="M4698 523 c7 -3 16 -2 19 1 4 3 -2 6 -13 5 -11 0 -14 -3 -6 -6z"/>
<path d="M4773 523 c20 -2 54 -2 75 0 20 2 3 4 -38 4 -41 0 -58 -2 -37 -4z"/>
<path d="M6390 508 c-49 -10 -147 -21 -230 -25 -103 -4 -152 -10 -168 -21 -21
-14 -25 -31 -4 -18 6 3 61 8 123 10 107 4 343 46 379 67 22 13 1 10 -100 -13z"/>
<path d="M1015 510 c11 -5 27 -9 35 -9 9 0 8 4 -5 9 -11 5 -27 9 -35 9 -9 0
-8 -4 5 -9z"/>
<path d="M3688 513 c6 -2 18 -2 25 0 6 3 1 5 -13 5 -14 0 -19 -2 -12 -5z"/>
<path d="M3773 513 c9 -2 23 -2 30 0 6 3 -1 5 -18 5 -16 0 -22 -2 -12 -5z"/>
<path d="M5860 504 l-105 -12 105 5 c96 5 120 8 109 16 -2 1 -51 -3 -109 -9z"/>
<path d="M470 500 c8 -5 26 -10 39 -10 32 0 24 6 -19 14 -25 4 -31 3 -20 -4z"/>
<path d="M748 503 c7 -3 16 -2 19 1 4 3 -2 6 -13 5 -11 0 -14 -3 -6 -6z"/>
<path d="M813 493 c9 -2 23 -2 30 0 6 3 -1 5 -18 5 -16 0 -22 -2 -12 -5z"/>
<path d="M1088 493 c7 -3 16 -2 19 1 4 3 -2 6 -13 5 -11 0 -14 -3 -6 -6z"/>
<path d="M58 483 c7 -3 16 -2 19 1 4 3 -2 6 -13 5 -11 0 -14 -3 -6 -6z"/>
<path d="M588 483 c6 -2 18 -2 25 0 6 3 1 5 -13 5 -14 0 -19 -2 -12 -5z"/>
<path d="M3168 483 c6 -2 18 -2 25 0 6 3 1 5 -13 5 -14 0 -19 -2 -12 -5z"/>
<path d="M4363 483 c9 -2 25 -2 35 0 9 3 1 5 -18 5 -19 0 -27 -2 -17 -5z"/>
<path d="M3116 471 c-4 -5 3 -7 14 -4 23 6 26 13 6 13 -8 0 -17 -4 -20 -9z"/>
<path d="M3473 473 c9 -2 25 -2 35 0 9 3 1 5 -18 5 -19 0 -27 -2 -17 -5z"/>
<path d="M4563 473 c26 -2 67 -2 90 0 23 2 2 3 -48 3 -49 0 -68 -1 -42 -3z"/>
<path d="M688 463 c6 -2 18 -2 25 0 6 3 1 5 -13 5 -14 0 -19 -2 -12 -5z"/>
<path d="M1423 463 c15 -2 39 -2 55 0 15 2 2 4 -28 4 -30 0 -43 -2 -27 -4z"/>
<path d="M6375 449 c-72 -15 -244 -28 -378 -29 -11 0 -17 -6 -14 -12 6 -20
169 -11 342 19 83 14 157 29 165 34 24 13 -14 10 -115 -12z"/>
<path d="M1523 453 c9 -2 23 -2 30 0 6 3 -1 5 -18 5 -16 0 -22 -2 -12 -5z"/>
<path d="M3798 453 c6 -2 18 -2 25 0 6 3 1 5 -13 5 -14 0 -19 -2 -12 -5z"/>
<path d="M3888 453 c7 -3 16 -2 19 1 4 3 -2 6 -13 5 -11 0 -14 -3 -6 -6z"/>
<path d="M5603 453 c9 -2 25 -2 35 0 9 3 1 5 -18 5 -19 0 -27 -2 -17 -5z"/>
<path d="M5810 450 l-135 -6 137 -2 c83 -1 139 2 143 8 3 6 3 9 -2 8 -4 -1
-69 -5 -143 -8z"/>
<path d="M10 440 c8 -5 24 -10 34 -10 26 0 18 6 -19 14 -22 5 -26 4 -15 -4z"/>
<path d="M808 443 c7 -3 16 -2 19 1 4 3 -2 6 -13 5 -11 0 -14 -3 -6 -6z"/>
<path d="M3010 440 c-12 -8 -11 -10 7 -10 12 0 25 5 28 10 8 13 -15 13 -35 0z"/>
<path d="M848 433 c6 -2 18 -2 25 0 6 3 1 5 -13 5 -14 0 -19 -2 -12 -5z"/>
<path d="M3188 433 c6 -2 18 -2 25 0 6 3 1 5 -13 5 -14 0 -19 -2 -12 -5z"/>
<path d="M4143 433 c9 -2 23 -2 30 0 6 3 -1 5 -18 5 -16 0 -22 -2 -12 -5z"/>
<path d="M4208 433 c6 -2 18 -2 25 0 6 3 1 5 -13 5 -14 0 -19 -2 -12 -5z"/>
<path d="M230 427 c0 -3 12 -12 26 -22 15 -9 23 -12 20 -6 -7 11 -46 35 -46
28z"/>
<path d="M1988 423 c6 -2 18 -2 25 0 6 3 1 5 -13 5 -14 0 -19 -2 -12 -5z"/>
<path d="M2193 423 c9 -2 25 -2 35 0 9 3 1 5 -18 5 -19 0 -27 -2 -17 -5z"/>
<path d="M3105 420 c-14 -7 -8 -8 20 -3 22 3 42 7 44 9 9 8 -45 2 -64 -6z"/>
<path d="M4408 423 c7 -3 16 -2 19 1 4 3 -2 6 -13 5 -11 0 -14 -3 -6 -6z"/>
<path d="M450 410 c20 -13 33 -13 25 0 -3 6 -14 10 -23 10 -15 0 -15 -2 -2
-10z"/>
<path d="M688 413 c6 -2 18 -2 25 0 6 3 1 5 -13 5 -14 0 -19 -2 -12 -5z"/>
<path d="M1378 413 c7 -3 16 -2 19 1 4 3 -2 6 -13 5 -11 0 -14 -3 -6 -6z"/>
<path d="M3458 413 c7 -3 16 -2 19 1 4 3 -2 6 -13 5 -11 0 -14 -3 -6 -6z"/>
<path d="M4568 413 c7 -3 16 -2 19 1 4 3 -2 6 -13 5 -11 0 -14 -3 -6 -6z"/>
<path d="M4633 413 c15 -2 39 -2 55 0 15 2 2 4 -28 4 -30 0 -43 -2 -27 -4z"/>
<path d="M6390 399 c-57 -13 -142 -22 -257 -26 -132 -4 -173 -9 -177 -19 -3
-9 2 -14 14 -14 10 0 22 -4 25 -10 4 -6 -6 -10 -24 -10 -29 0 -49 -15 -37 -27
21 -21 245 -5 426 32 69 13 128 25 133 25 4 0 7 5 7 11 0 7 -9 9 -22 5 -121
-35 -389 -66 -444 -51 -26 7 -27 8 -9 15 11 5 40 9 65 10 75 1 369 53 398 70
25 14 2 11 -98 -11z"/>
<path d="M740 406 c0 -2 11 -6 25 -8 13 -3 22 -1 19 3 -5 9 -44 13 -44 5z"/>
<path d="M978 403 c7 -3 16 -2 19 1 4 3 -2 6 -13 5 -11 0 -14 -3 -6 -6z"/>
<path d="M3708 403 c6 -2 18 -2 25 0 6 3 1 5 -13 5 -14 0 -19 -2 -12 -5z"/>
<path d="M5548 403 c18 -2 45 -2 60 0 15 2 0 4 -33 4 -33 0 -45 -2 -27 -4z"/>
<path d="M40 385 c14 -8 34 -14 45 -14 11 0 2 6 -20 14 -50 18 -57 18 -25 0z"/>
<path d="M520 390 c25 -8 87 -13 79 -6 -2 2 -26 6 -54 9 -34 4 -42 3 -25 -3z"/>
<path d="M1018 393 c7 -3 16 -2 19 1 4 3 -2 6 -13 5 -11 0 -14 -3 -6 -6z"/>
<path d="M1608 393 c7 -3 16 -2 19 1 4 3 -2 6 -13 5 -11 0 -14 -3 -6 -6z"/>
<path d="M2990 384 l-55 -14 48 5 c27 3 56 9 65 15 21 12 12 11 -58 -6z"/>
<path d="M3898 393 c12 -2 30 -2 40 0 9 3 -1 5 -23 4 -22 0 -30 -2 -17 -4z"/>
<path d="M5663 393 c9 -2 25 -2 35 0 9 3 1 5 -18 5 -19 0 -27 -2 -17 -5z"/>
<path d="M5785 390 c-23 -4 5 -6 65 -3 57 2 106 6 109 9 7 6 -129 2 -174 -6z"/>
<path d="M1058 383 c7 -3 16 -2 19 1 4 3 -2 6 -13 5 -11 0 -14 -3 -6 -6z"/>
<path d="M1688 383 c6 -2 18 -2 25 0 6 3 1 5 -13 5 -14 0 -19 -2 -12 -5z"/>
<path d="M460 367 c8 -8 26 -18 40 -22 32 -9 25 -2 -20 20 -27 13 -32 14 -20
2z"/>
<path d="M618 373 c6 -2 18 -2 25 0 6 3 1 5 -13 5 -14 0 -19 -2 -12 -5z"/>
<path d="M2608 373 c7 -3 16 -2 19 1 4 3 -2 6 -13 5 -11 0 -14 -3 -6 -6z"/>
<path d="M2648 373 c6 -2 18 -2 25 0 6 3 1 5 -13 5 -14 0 -19 -2 -12 -5z"/>
<path d="M4213 373 c9 -2 25 -2 35 0 9 3 1 5 -18 5 -19 0 -27 -2 -17 -5z"/>
<path d="M668 363 c7 -3 16 -2 19 1 4 3 -2 6 -13 5 -11 0 -14 -3 -6 -6z"/>
<path d="M2008 363 c6 -2 18 -2 25 0 6 3 1 5 -13 5 -14 0 -19 -2 -12 -5z"/>
<path d="M2148 363 c7 -3 16 -2 19 1 4 3 -2 6 -13 5 -11 0 -14 -3 -6 -6z"/>
<path d="M4438 363 c23 -2 59 -2 80 0 20 2 1 4 -43 4 -44 0 -61 -2 -37 -4z"/>
<path d="M988 343 c7 -3 16 -2 19 1 4 3 -2 6 -13 5 -11 0 -14 -3 -6 -6z"/>
<path d="M1483 343 c9 -2 23 -2 30 0 6 3 -1 5 -18 5 -16 0 -22 -2 -12 -5z"/>
<path d="M3030 340 c-8 -5 -10 -10 -5 -10 6 0 17 5 25 10 8 5 11 10 5 10 -5 0
-17 -5 -25 -10z"/>
<path d="M5598 343 c18 -2 45 -2 60 0 15 2 0 4 -33 4 -33 0 -45 -2 -27 -4z"/>
<path d="M5825 340 l-100 -6 102 -2 c59 -1 104 2 108 8 3 6 3 9 -2 8 -4 -1
-53 -5 -108 -8z"/>
<path d="M548 333 c6 -2 18 -2 25 0 6 3 1 5 -13 5 -14 0 -19 -2 -12 -5z"/>
<path d="M3913 333 c20 -2 54 -2 75 0 20 2 3 4 -38 4 -41 0 -58 -2 -37 -4z"/>
<path d="M0 326 c0 -2 8 -10 18 -17 15 -13 16 -12 3 4 -13 16 -21 21 -21 13z"/>
<path d="M80 326 c0 -2 9 -6 20 -9 11 -3 18 -1 14 4 -5 9 -34 13 -34 5z"/>
<path d="M1723 323 c9 -2 23 -2 30 0 6 3 -1 5 -18 5 -16 0 -22 -2 -12 -5z"/>
<path d="M2988 323 c7 -3 16 -2 19 1 4 3 -2 6 -13 5 -11 0 -14 -3 -6 -6z"/>
<path d="M4108 323 c7 -3 16 -2 19 1 4 3 -2 6 -13 5 -11 0 -14 -3 -6 -6z"/>
<path d="M148 313 c6 -2 18 -2 25 0 6 3 1 5 -13 5 -14 0 -19 -2 -12 -5z"/>
<path d="M1148 313 c6 -2 18 -2 25 0 6 3 1 5 -13 5 -14 0 -19 -2 -12 -5z"/>
<path d="M2498 313 c28 -2 76 -2 105 0 28 2 5 3 -53 3 -58 0 -81 -1 -52 -3z"/>
<path d="M4313 313 c15 -2 37 -2 50 0 12 2 0 4 -28 4 -27 0 -38 -2 -22 -4z"/>
<path d="M531 290 c21 -11 57 -22 80 -25 43 -5 43 -5 -9 10 -29 8 -62 19 -72
25 -10 5 -22 10 -27 10 -4 -1 8 -10 28 -20z"/>
<path d="M925 300 c11 -5 29 -8 40 -8 16 0 15 2 -5 8 -34 11 -60 11 -35 0z"/>
<path d="M2008 303 c12 -2 30 -2 40 0 9 3 -1 5 -23 4 -22 0 -30 -2 -17 -4z"/>
<path d="M4508 303 c12 -2 32 -2 45 0 12 2 2 4 -23 4 -25 0 -35 -2 -22 -4z"/>
<path d="M5580 293 c0 -14 300 -27 313 -14 8 8 -30 11 -128 11 -77 0 -150 3
-162 6 -13 4 -23 2 -23 -3z"/>
<path d="M0 287 c0 -3 12 -12 26 -22 15 -9 23 -12 20 -6 -7 11 -46 35 -46 28z"/>
<path d="M785 280 c11 -5 27 -9 35 -9 9 0 8 4 -5 9 -11 5 -27 9 -35 9 -9 0 -8
-4 5 -9z"/>
<path d="M1038 273 c7 -3 16 -2 19 1 4 3 -2 6 -13 5 -11 0 -14 -3 -6 -6z"/>
<path d="M4048 273 c6 -2 18 -2 25 0 6 3 1 5 -13 5 -14 0 -19 -2 -12 -5z"/>
<path d="M848 263 c7 -3 16 -2 19 1 4 3 -2 6 -13 5 -11 0 -14 -3 -6 -6z"/>
<path d="M3085 260 l-20 -9 20 1 c11 0 31 4 45 8 l25 8 -25 0 c-14 0 -34 -3
-45 -8z"/>
<path d="M3253 263 c9 -2 25 -2 35 0 9 3 1 5 -18 5 -19 0 -27 -2 -17 -5z"/>
<path d="M668 253 c6 -2 18 -2 25 0 6 3 1 5 -13 5 -14 0 -19 -2 -12 -5z"/>
<path d="M1248 253 c6 -2 18 -2 25 0 6 3 1 5 -13 5 -14 0 -19 -2 -12 -5z"/>
<path d="M2028 253 c7 -3 16 -2 19 1 4 3 -2 6 -13 5 -11 0 -14 -3 -6 -6z"/>
<path d="M3408 253 c6 -2 18 -2 25 0 6 3 1 5 -13 5 -14 0 -19 -2 -12 -5z"/>
<path d="M4298 253 c7 -3 16 -2 19 1 4 3 -2 6 -13 5 -11 0 -14 -3 -6 -6z"/>
<path d="M4353 253 c15 -2 39 -2 55 0 15 2 2 4 -28 4 -30 0 -43 -2 -27 -4z"/>
<path d="M718 243 c7 -3 16 -2 19 1 4 3 -2 6 -13 5 -11 0 -14 -3 -6 -6z"/>
<path d="M1368 243 c6 -2 18 -2 25 0 6 3 1 5 -13 5 -14 0 -19 -2 -12 -5z"/>
<path d="M3020 235 c-14 -8 -20 -14 -15 -14 6 0 21 6 35 14 14 8 21 14 15 14
-5 0 -21 -6 -35 -14z"/>
<path d="M3508 243 c7 -3 16 -2 19 1 4 3 -2 6 -13 5 -11 0 -14 -3 -6 -6z"/>
<path d="M4840 240 c0 -5 5 -10 11 -10 5 0 7 5 4 10 -3 6 -8 10 -11 10 -2 0
-4 -4 -4 -10z"/>
<path d="M0 232 c0 -6 9 -12 20 -15 26 -7 26 -1 0 13 -11 6 -20 7 -20 2z"/>
<path d="M124 226 c11 -9 27 -16 35 -15 14 0 14 1 1 6 -8 3 -24 10 -35 15 -20
9 -20 9 -1 -6z"/>
<path d="M752 235 c6 -6 144 -45 155 -44 13 1 -130 49 -146 49 -8 0 -12 -2 -9
-5z"/>
<path d="M1478 233 c7 -3 16 -2 19 1 4 3 -2 6 -13 5 -11 0 -14 -3 -6 -6z"/>
<path d="M991 226 c2 -2 20 -6 39 -10 25 -4 31 -3 20 4 -14 9 -69 15 -59 6z"/>
<path d="M3893 223 c9 -2 23 -2 30 0 6 3 -1 5 -18 5 -16 0 -22 -2 -12 -5z"/>
<path d="M3083 208 c-24 -5 -43 -13 -43 -18 0 -6 9 -6 23 -1 12 5 38 14 57 19
45 13 18 13 -37 0z"/>
<path d="M4043 213 c9 -2 23 -2 30 0 6 3 -1 5 -18 5 -16 0 -22 -2 -12 -5z"/>
<path d="M105 200 c3 -5 8 -10 11 -10 2 0 4 5 4 10 0 6 -5 10 -11 10 -5 0 -7
-4 -4 -10z"/>
<path d="M680 200 c8 -5 26 -9 40 -9 23 0 23 1 5 9 -11 5 -29 9 -40 9 -17 1
-17 -1 -5 -9z"/>
<path d="M1163 203 c9 -2 23 -2 30 0 6 3 -1 5 -18 5 -16 0 -22 -2 -12 -5z"/>
<path d="M2923 203 c9 -2 23 -2 30 0 6 3 -1 5 -18 5 -16 0 -22 -2 -12 -5z"/>
<path d="M3288 203 c12 -2 30 -2 40 0 9 3 -1 5 -23 4 -22 0 -30 -2 -17 -4z"/>
<path d="M4183 203 c15 -2 39 -2 55 0 15 2 2 4 -28 4 -30 0 -43 -2 -27 -4z"/>
<path d="M1273 193 c15 -2 37 -2 50 0 12 2 0 4 -28 4 -27 0 -38 -2 -22 -4z"/>
<path d="M1903 193 c15 -2 39 -2 55 0 15 2 2 4 -28 4 -30 0 -43 -2 -27 -4z"/>
<path d="M2038 193 c23 -2 61 -2 85 0 23 2 4 4 -43 4 -47 0 -66 -2 -42 -4z"/>
<path d="M3408 193 c6 -2 18 -2 25 0 6 3 1 5 -13 5 -14 0 -19 -2 -12 -5z"/>
<path d="M3458 193 c7 -3 16 -2 19 1 4 3 -2 6 -13 5 -11 0 -14 -3 -6 -6z"/>
<path d="M4413 193 c9 -2 23 -2 30 0 6 3 -1 5 -18 5 -16 0 -22 -2 -12 -5z"/>
<path d="M130 185 c0 -10 68 -35 92 -34 14 0 4 6 -23 14 -26 7 -52 15 -58 19
-6 4 -11 4 -11 1z"/>
<path d="M765 181 c31 -13 93 -24 75 -13 -8 5 -33 12 -55 16 -26 4 -33 3 -20
-3z"/>
<path d="M928 183 c7 -3 16 -2 19 1 4 3 -2 6 -13 5 -11 0 -14 -3 -6 -6z"/>
<path d="M3010 180 c-9 -6 -10 -10 -3 -10 6 0 15 5 18 10 8 12 4 12 -15 0z"/>
<path d="M3528 183 c6 -2 18 -2 25 0 6 3 1 5 -13 5 -14 0 -19 -2 -12 -5z"/>
<path d="M4518 183 c7 -3 16 -2 19 1 4 3 -2 6 -13 5 -11 0 -14 -3 -6 -6z"/>
<path d="M4618 183 c34 -2 88 -2 120 0 31 2 3 3 -63 3 -66 0 -92 -1 -57 -3z"/>
<path d="M64 151 c26 -18 50 -31 52 -29 4 5 -57 46 -81 54 -11 3 2 -8 29 -25z"/>
<path d="M968 173 c7 -3 16 -2 19 1 4 3 -2 6 -13 5 -11 0 -14 -3 -6 -6z"/>
<path d="M3703 173 c15 -2 37 -2 50 0 12 2 0 4 -28 4 -27 0 -38 -2 -22 -4z"/>
<path d="M3815 170 c31 -8 112 -13 104 -6 -2 2 -33 6 -69 9 -41 3 -54 2 -35
-3z"/>
<path d="M1588 163 c7 -3 16 -2 19 1 4 3 -2 6 -13 5 -11 0 -14 -3 -6 -6z"/>
<path d="M3938 163 c7 -3 16 -2 19 1 4 3 -2 6 -13 5 -11 0 -14 -3 -6 -6z"/>
<path d="M880 151 c14 -4 39 -11 55 -14 l30 -6 -30 14 c-16 8 -41 14 -55 14
l-25 -1 25 -7z"/>
<path d="M2948 153 c7 -3 16 -2 19 1 4 3 -2 6 -13 5 -11 0 -14 -3 -6 -6z"/>
<path d="M3050 144 l-25 -15 25 7 c14 4 43 11 65 15 l40 6 -40 1 c-22 1 -51
-5 -65 -14z"/>
<path d="M4023 153 c9 -2 25 -2 35 0 9 3 1 5 -18 5 -19 0 -27 -2 -17 -5z"/>
<path d="M4088 153 c7 -3 16 -2 19 1 4 3 -2 6 -13 5 -11 0 -14 -3 -6 -6z"/>
<path d="M4145 150 c19 -8 103 -14 94 -6 -2 2 -29 6 -59 9 -34 3 -47 2 -35 -3z"/>
<path d="M137 139 c7 -7 15 -10 18 -7 3 3 -2 9 -12 12 -14 6 -15 5 -6 -5z"/>
<path d="M1828 143 c6 -2 18 -2 25 0 6 3 1 5 -13 5 -14 0 -19 -2 -12 -5z"/>
<path d="M2128 143 c6 -2 18 -2 25 0 6 3 1 5 -13 5 -14 0 -19 -2 -12 -5z"/>
<path d="M2238 143 c7 -3 16 -2 19 1 4 3 -2 6 -13 5 -11 0 -14 -3 -6 -6z"/>
<path d="M2418 143 c12 -2 32 -2 45 0 12 2 2 4 -23 4 -25 0 -35 -2 -22 -4z"/>
<path d="M2898 143 c7 -3 16 -2 19 1 4 3 -2 6 -13 5 -11 0 -14 -3 -6 -6z"/>
<path d="M3378 143 c7 -3 16 -2 19 1 4 3 -2 6 -13 5 -11 0 -14 -3 -6 -6z"/>
<path d="M4271 146 c2 -2 28 -6 57 -10 37 -5 52 -4 47 4 -3 5 -29 10 -57 10
-28 0 -49 -2 -47 -4z"/>
<path d="M3443 133 c15 -2 37 -2 50 0 12 2 0 4 -28 4 -27 0 -38 -2 -22 -4z"/>
<path d="M4438 133 c23 -2 61 -2 85 0 23 2 4 4 -43 4 -47 0 -66 -2 -42 -4z"/>
<path d="M4578 133 c7 -3 16 -2 19 1 4 3 -2 6 -13 5 -11 0 -14 -3 -6 -6z"/>
<path d="M3588 123 c12 -2 32 -2 45 0 12 2 2 4 -23 4 -25 0 -35 -2 -22 -4z"/>
<path d="M38 113 c7 -3 16 -2 19 1 4 3 -2 6 -13 5 -11 0 -14 -3 -6 -6z"/>
<path d="M809 102 c5 -9 19 -26 32 -37 21 -20 21 -19 -2 17 -24 38 -48 54 -30
20z"/>
<path d="M918 113 c6 -2 18 -2 25 0 6 3 1 5 -13 5 -14 0 -19 -2 -12 -5z"/>
<path d="M988 113 c7 -3 16 -2 19 1 4 3 -2 6 -13 5 -11 0 -14 -3 -6 -6z"/>
<path d="M1523 113 c15 -2 37 -2 50 0 12 2 0 4 -28 4 -27 0 -38 -2 -22 -4z"/>
<path d="M3733 113 c15 -2 39 -2 55 0 15 2 2 4 -28 4 -30 0 -43 -2 -27 -4z"/>
<path d="M70 106 c0 -6 118 -79 153 -94 26 -11 106 -18 96 -8 -2 3 -22 7 -44
9 -51 7 -69 14 -130 52 -72 45 -75 47 -75 41z"/>
<path d="M228 103 c12 -2 30 -2 40 0 9 3 -1 5 -23 4 -22 0 -30 -2 -17 -4z"/>
<path d="M862 83 c15 -15 30 -25 33 -22 7 8 -33 49 -48 49 -6 0 1 -12 15 -27z"/>
<path d="M1048 103 c7 -3 16 -2 19 1 4 3 -2 6 -13 5 -11 0 -14 -3 -6 -6z"/>
<path d="M1613 103 c9 -2 25 -2 35 0 9 3 1 5 -18 5 -19 0 -27 -2 -17 -5z"/>
<path d="M2925 100 c-28 -7 -28 -8 -5 -9 14 0 32 4 40 9 17 11 8 11 -35 0z"/>
<path d="M3067 100 c-20 -4 -40 -10 -43 -13 -9 -9 68 4 86 14 17 10 10 10 -43
-1z"/>
<path d="M3868 103 c7 -3 16 -2 19 1 4 3 -2 6 -13 5 -11 0 -14 -3 -6 -6z"/>
<path d="M1133 93 c15 -2 37 -2 50 0 12 2 0 4 -28 4 -27 0 -38 -2 -22 -4z"/>
<path d="M1733 93 c9 -2 25 -2 35 0 9 3 1 5 -18 5 -19 0 -27 -2 -17 -5z"/>
<path d="M3278 93 c6 -2 18 -2 25 0 6 3 1 5 -13 5 -14 0 -19 -2 -12 -5z"/>
<path d="M4098 93 c7 -3 16 -2 19 1 4 3 -2 6 -13 5 -11 0 -14 -3 -6 -6z"/>
<path d="M1898 83 c12 -2 30 -2 40 0 9 3 -1 5 -23 4 -22 0 -30 -2 -17 -4z"/>
<path d="M2058 83 c7 -3 16 -2 19 1 4 3 -2 6 -13 5 -11 0 -14 -3 -6 -6z"/>
<path d="M2118 83 c18 -2 45 -2 60 0 15 2 0 4 -33 4 -33 0 -45 -2 -27 -4z"/>
<path d="M2258 83 c7 -3 16 -2 19 1 4 3 -2 6 -13 5 -11 0 -14 -3 -6 -6z"/>
<path d="M2298 83 c7 -3 16 -2 19 1 4 3 -2 6 -13 5 -11 0 -14 -3 -6 -6z"/>
<path d="M2638 83 c7 -3 16 -2 19 1 4 3 -2 6 -13 5 -11 0 -14 -3 -6 -6z"/>
<path d="M2843 83 c9 -2 23 -2 30 0 6 3 -1 5 -18 5 -16 0 -22 -2 -12 -5z"/>
<path d="M4233 83 c31 -2 83 -2 115 0 31 2 5 3 -58 3 -63 0 -89 -1 -57 -3z"/>
<path d="M3498 73 c12 -2 30 -2 40 0 9 3 -1 5 -23 4 -22 0 -30 -2 -17 -4z"/>
<path d="M4533 73 c32 -2 81 -2 110 0 29 2 3 3 -58 3 -60 0 -84 -1 -52 -3z"/>
<path d="M1448 63 c7 -3 16 -2 19 1 4 3 -2 6 -13 5 -11 0 -14 -3 -6 -6z"/>
<path d="M3643 63 c9 -2 25 -2 35 0 9 3 1 5 -18 5 -19 0 -27 -2 -17 -5z"/>
<path d="M4783 63 c15 -2 39 -2 55 0 15 2 2 4 -28 4 -30 0 -43 -2 -27 -4z"/>
<path d="M60 58 c9 -8 90 -48 90 -44 0 7 -45 33 -70 41 -14 4 -23 5 -20 3z"/>
<path d="M1018 53 c7 -3 16 -2 19 1 4 3 -2 6 -13 5 -11 0 -14 -3 -6 -6z"/>
<path d="M1525 55 c23 -8 83 -10 79 -3 -3 4 -24 8 -47 7 -23 0 -37 -2 -32 -4z"/>
<path d="M3738 53 c6 -2 18 -2 25 0 6 3 1 5 -13 5 -14 0 -19 -2 -12 -5z"/>
<path d="M915 30 c10 -11 20 -20 23 -20 3 0 -3 9 -13 20 -10 11 -20 20 -23 20
-3 0 3 -9 13 -20z"/>
<path d="M1058 43 c6 -2 18 -2 25 0 6 3 1 5 -13 5 -14 0 -19 -2 -12 -5z"/>
<path d="M3025 34 c-26 -9 -29 -11 -10 -7 17 3 62 9 100 13 l70 7 -60 1 c-33
0 -78 -6 -100 -14z"/>
<path d="M3248 43 c6 -2 18 -2 25 0 6 3 1 5 -13 5 -14 0 -19 -2 -12 -5z"/>
<path d="M3963 43 c9 -2 23 -2 30 0 6 3 -1 5 -18 5 -16 0 -22 -2 -12 -5z"/>
<path d="M4018 43 c7 -3 16 -2 19 1 4 3 -2 6 -13 5 -11 0 -14 -3 -6 -6z"/>
<path d="M6390 27 c-36 -12 -57 -23 -47 -25 17 -3 157 35 157 44 0 9 -49 1
-110 -19z"/>
<path d="M871 23 c7 -12 15 -20 18 -17 3 2 -3 12 -13 22 -17 16 -18 16 -5 -5z"/>
<path d="M1148 33 c6 -2 18 -2 25 0 6 3 1 5 -13 5 -14 0 -19 -2 -12 -5z"/>
<path d="M1248 33 c7 -3 16 -2 19 1 4 3 -2 6 -13 5 -11 0 -14 -3 -6 -6z"/>
<path d="M1758 33 c7 -3 16 -2 19 1 4 3 -2 6 -13 5 -11 0 -14 -3 -6 -6z"/>
<path d="M1830 28 c0 -4 21 -8 48 -7 52 1 48 6 -10 11 -21 2 -38 0 -38 -4z"/>
<path d="M2508 33 c7 -3 16 -2 19 1 4 3 -2 6 -13 5 -11 0 -14 -3 -6 -6z"/>
<path d="M4098 33 c12 -2 32 -2 45 0 12 2 2 4 -23 4 -25 0 -35 -2 -22 -4z"/>
<path d="M836 17 c3 -10 9 -15 12 -12 3 3 0 11 -7 18 -10 9 -11 8 -5 -6z"/>
<path d="M1958 23 c7 -3 16 -2 19 1 4 3 -2 6 -13 5 -11 0 -14 -3 -6 -6z"/>
<path d="M2098 23 c12 -2 32 -2 45 0 12 2 2 4 -23 4 -25 0 -35 -2 -22 -4z"/>
<path d="M2828 23 c12 -2 30 -2 40 0 9 3 -1 5 -23 4 -22 0 -30 -2 -17 -4z"/>
<path d="M3418 23 c12 -2 30 -2 40 0 9 3 -1 5 -23 4 -22 0 -30 -2 -17 -4z"/>
<path d="M4283 23 c15 -2 37 -2 50 0 12 2 0 4 -28 4 -27 0 -38 -2 -22 -4z"/>
<path d="M5210 21 c-170 -7 -166 -7 105 -8 154 -1 295 -4 313 -7 17 -3 32 -1
32 4 0 6 -22 10 -48 10 -27 0 -89 2 -138 4 -49 1 -168 0 -264 -3z"/>
<path d="M18 13 c7 -3 16 -2 19 1 4 3 -2 6 -13 5 -11 0 -14 -3 -6 -6z"/>
<path d="M3568 13 c7 -3 16 -2 19 1 4 3 -2 6 -13 5 -11 0 -14 -3 -6 -6z"/>
<path d="M4538 13 c7 -3 16 -2 19 1 4 3 -2 6 -13 5 -11 0 -14 -3 -6 -6z"/>
<path d="M4621 16 c2 -2 41 -7 87 -10 56 -5 82 -4 82 3 0 7 -32 11 -87 11 -47
0 -84 -2 -82 -4z"/>
<path d="M4810 10 c0 -5 7 -10 15 -10 8 0 15 5 15 10 0 6 -7 10 -15 10 -8 0
-15 -4 -15 -10z"/>
<path d="M4882 14 c8 -7 138 -7 146 0 3 3 -30 6 -73 6 -43 0 -76 -3 -73 -6z"/>
<path d="M3633 3 c15 -2 37 -2 50 0 12 2 0 4 -28 4 -27 0 -38 -2 -22 -4z"/>
</g>
</svg>
